<?xml version="1.0" encoding="UTF-8" standalone="no"?>
<svg width="540px" height="201px" viewBox="0 0 540 201" version="1.1" xmlns="http://www.w3.org/2000/svg" xmlns:xlink="http://www.w3.org/1999/xlink">
    <!-- Generator: Sketch 42 (36781) - http://www.bohemiancoding.com/sketch -->
    <title>Group</title>
    <desc>Created with Sketch.</desc>
    <defs></defs>
    <g id="Page-1" stroke="none" stroke-width="1" fill="none" fill-rule="evenodd">
        <g id="Group">
            <path d="M16.967,190.844 C17.017,190.287 17.042,189.755 17.042,189.249 C17.042,185.327 15.424,182.695 12.64,182.695 C9.426,182.695 5.629,186.592 4.44,190.844 L16.967,190.844 Z M22.283,192.589 L0.921,192.589 L0.921,190.844 L2.946,190.844 L2.946,176.241 L4.82,176.241 L4.415,188.008 C6.135,183.808 9.552,181.074 12.766,181.074 C16.841,181.074 18.866,183.959 18.866,189.653 C18.866,190.035 18.866,190.413 18.839,190.82 L22.283,190.82 L22.283,192.589 L22.283,192.589 Z" id="Fill-1" fill="#171816"></path>
            <path d="M42.299,181.101 L42.299,188.137 C42.299,191.097 41.059,192.589 38.552,192.589 L21.799,192.589 L21.799,190.82 L24.153,190.82 C25.772,190.82 26.658,189.731 26.836,187.579 L26.836,181.101 L28.606,181.101 L28.606,188.137 C28.606,189.173 28.454,190.035 28.177,190.718 L28.177,190.82 L31.492,190.82 C33.111,190.82 33.643,190.035 33.643,187.351 L33.643,181.101 L35.415,181.101 L35.415,188.137 C35.415,189.225 35.263,190.135 34.934,190.82 L37.971,190.82 C39.869,190.82 40.503,190.035 40.503,187.351 L40.503,181.101 L42.299,181.101" id="Fill-2" fill="#171816"></path>
            <path d="M52.826,186.668 C52.826,184.39 51.56,182.595 49.688,182.595 C47.839,182.595 46.7,184.364 46.7,186.568 C46.7,188.87 47.966,190.618 49.813,190.618 C51.661,190.618 52.826,188.87 52.826,186.668 Z M54.545,186.668 L54.545,190.439 C54.545,194.564 52.927,196.538 49.207,196.74 L49.207,195.045 C51.535,195.045 52.723,193.627 52.773,190.768 C52.217,191.73 51.23,192.21 49.788,192.21 C47.004,192.21 44.954,189.882 44.954,186.592 C44.954,183.353 46.902,181.024 49.788,181.024 C52.547,181.024 54.545,183.378 54.545,186.668 L54.545,186.668 Z" id="Fill-3" fill="#171816"></path>
            <path d="M68.389,176.217 L68.389,188.137 C68.389,191.097 67.147,192.589 64.668,192.589 L57.354,192.589 L57.354,190.844 L61.479,190.844 L58.215,178.165 L60.138,178.165 L63.327,190.844 L64.087,190.844 C65.883,190.844 66.617,190.11 66.617,187.351 L66.617,176.217 L68.389,176.217 Z M61.302,173.811 L60.264,173.912 C60.163,173.331 59.86,173.028 59.327,173.028 C58.646,173.028 58.291,173.483 58.291,174.393 C58.291,174.748 58.366,175.052 58.543,175.305 L61.25,175.305 L61.25,176.317 L56.418,176.317 L56.418,175.305 L57.43,175.305 C57.304,175.026 57.253,174.723 57.253,174.42 C57.253,173.129 57.91,172.193 59.327,172.193 C60.416,172.193 61.074,172.725 61.302,173.811 L61.302,173.811 Z" id="Fill-4" fill="#171816"></path>
            <polygon id="Fill-5" fill="#171816" points="71.779 192.589 73.551 192.589 73.551 176.217 71.779 176.217"></polygon>
            <path d="M91.999,179.277 L93.821,179.277 L93.821,177.127 L91.999,177.127 L91.999,179.277 Z M88.683,179.277 L90.505,179.277 L90.505,177.127 L88.683,177.127 L88.683,179.277 Z M94.454,186.06 C94.454,185.023 94.251,184.137 93.872,183.429 C93.34,182.493 92.557,182.037 91.492,182.037 L91.24,182.037 C90.253,182.037 89.519,182.493 88.987,183.404 C88.582,184.137 88.381,184.973 88.381,185.908 C88.381,186.946 88.607,187.806 89.038,188.515 C89.594,189.4 90.379,189.831 91.416,189.831 C92.429,189.831 93.213,189.427 93.77,188.591 C94.227,187.908 94.454,187.074 94.454,186.06 Z M96.251,188.667 C96.251,191.224 95.542,193.198 94.125,194.639 C92.732,196.082 90.784,196.791 88.329,196.791 C86.051,196.791 84.128,196.007 82.559,194.463 C81.015,192.919 80.231,190.92 80.231,188.491 L80.231,183.986 L82.053,183.986 L82.053,188.161 C82.053,190.21 82.635,191.857 83.799,193.145 C84.963,194.436 86.455,195.07 88.254,195.07 C89.848,195.07 91.165,194.689 92.252,193.931 C93.518,193.044 94.277,191.679 94.504,189.856 C93.744,190.742 92.708,191.198 91.416,191.198 C89.999,191.198 88.835,190.718 87.924,189.782 C87.039,188.844 86.583,187.553 86.583,185.958 C86.583,182.695 88.381,180.696 91.341,180.696 C94.302,180.696 96.251,182.568 96.251,185.884 L96.251,188.667 L96.251,188.667 Z" id="Fill-6" fill="#171816"></path>
            <path d="M107.638,192.589 L103.284,192.589 C102.804,195.196 101.083,196.563 98.146,196.74 L98.146,195.045 C100.5,195.045 101.69,193.754 101.69,190.768 L101.69,181.101 L103.462,181.101 L103.462,190.82 L107.638,190.82 L107.638,192.589" id="Fill-7" fill="#171816"></path>
            <path d="M120.468,179.277 L122.264,179.277 L122.264,177.127 L120.468,177.127 L120.468,179.277 Z M118.772,176.47 L120.569,176.47 L120.569,174.319 L118.772,174.319 L118.772,176.47 Z M117.152,179.277 L118.949,179.277 L118.949,177.127 L117.152,177.127 L117.152,179.277 Z M130.97,192.589 L106.928,192.589 L106.928,190.82 L109.282,190.82 C110.901,190.82 111.939,189.731 111.939,187.579 L111.939,181.101 L113.737,181.101 L113.737,188.137 C113.737,189.173 113.583,190.035 113.306,190.718 L113.306,190.82 L116.621,190.82 C118.241,190.82 118.772,190.035 118.772,187.351 L118.772,181.101 L120.544,181.101 L120.544,188.137 C120.544,189.225 120.392,190.135 120.063,190.82 L123.1,190.82 C124.998,190.82 125.631,190.035 125.631,187.351 L125.631,181.101 L127.402,181.101 L127.402,188.137 C127.402,189.225 127.225,190.135 126.896,190.82 L130.97,190.82 L130.97,192.589 L130.97,192.589 Z" id="Fill-8" fill="#171816"></path>
            <path d="M136.41,176.217 L136.41,188.137 C136.41,191.097 135.17,192.589 132.689,192.589 L130.487,192.589 L130.487,190.844 L132.108,190.844 C133.195,190.844 133.904,190.489 134.259,189.782 C134.512,189.326 134.638,188.515 134.638,187.351 L134.638,176.217 L136.41,176.217" id="Fill-9" fill="#171816"></path>
            <polygon id="Fill-10" fill="#171816" points="139.8 192.589 141.572 192.589 141.572 176.217 139.8 176.217"></polygon>
            <path d="M157.414,200.764 L159.211,200.764 L159.211,198.613 L157.414,198.613 L157.414,200.764 Z M154.099,200.764 L155.896,200.764 L155.896,198.613 L154.099,198.613 L154.099,200.764 Z M169.587,192.589 L169.208,192.589 C166.879,192.589 165.083,191.274 164.5,189.097 C164.5,193.324 160.754,196.69 156.452,196.69 C151.796,196.69 148.252,192.742 148.252,187.681 L148.252,185.149 L150.049,185.149 L150.049,187.351 C150.049,191.908 152.503,194.918 156.528,194.918 C159.919,194.918 162.88,192.083 162.88,189.046 C162.88,186.769 161.665,185.605 159.591,185.605 L159.591,184.01 L159.565,184.01 C159.565,183.986 160.021,183.959 160.933,183.959 C162.475,183.959 164.602,185.554 165.386,187.579 C166.322,190.009 167.157,190.82 169.056,190.82 L169.587,190.82 L169.587,192.589 L169.587,192.589 Z" id="Fill-11" fill="#171816"></path>
            <path d="M177.051,179.277 L178.873,179.277 L178.873,177.127 L177.051,177.127 L177.051,179.277 Z M181.252,186.668 C181.252,184.137 180.114,182.595 178.039,182.595 C175.786,182.595 174.622,184.289 174.622,186.971 C174.622,189.502 175.862,191.123 177.937,191.123 C180.139,191.123 181.252,189.629 181.252,186.668 Z M183.201,186.845 C183.201,190.135 181.126,192.589 177.937,192.589 L168.953,192.589 L168.953,190.82 L173.889,190.82 C173.052,189.807 172.623,188.491 172.623,186.87 C172.623,183.579 174.672,181.125 177.962,181.125 C181.176,181.125 183.201,183.404 183.201,186.845 L183.201,186.845 Z" id="Fill-12" fill="#171816"></path>
            <path d="M205.875,177.051 L207.673,177.051 L207.673,174.9 L205.875,174.9 L205.875,177.051 Z M207.015,189.147 C209.165,188.238 210.507,186.415 210.507,184.415 C210.507,182.366 209.114,180.949 206.989,180.949 C204.788,180.949 203.472,182.467 203.472,184.39 C203.472,186.39 204.863,188.238 207.015,189.147 Z M215.442,192.589 L212.937,192.589 C209.419,192.589 209.014,192.363 207.015,191.224 C205.015,192.388 204.585,192.589 201.043,192.589 L196.891,192.589 C192.032,192.589 189.603,190.135 189.603,185.226 L189.603,181.582 L191.374,181.582 L191.374,185.226 C191.374,188.996 193.171,190.82 196.738,190.82 L202.535,190.82 C203.472,190.82 204.332,190.618 205.116,190.21 C202.914,189.173 201.523,186.996 201.523,184.668 C201.523,181.607 203.75,179.406 206.989,179.406 C210.254,179.406 212.456,181.607 212.456,184.668 C212.456,187.074 211.064,189.173 208.863,190.21 C209.647,190.618 210.507,190.82 211.443,190.82 L215.442,190.82 L215.442,192.589 L215.442,192.589 Z" id="Fill-13" fill="#171816"></path>
            <path d="M218.982,196.462 L220.779,196.462 L220.779,194.311 L218.982,194.311 L218.982,196.462 Z M215.668,196.462 L217.464,196.462 L217.464,194.311 L215.668,194.311 L215.668,196.462 Z M223.564,192.589 L214.832,192.589 L214.832,190.844 L216.451,190.844 C217.54,190.844 218.249,190.489 218.604,189.807 C218.856,189.326 218.982,188.515 218.982,187.351 L218.982,181.101 L220.754,181.101 L220.754,188.137 C220.754,189.225 220.603,190.135 220.272,190.82 L223.564,190.82 L223.564,192.589 L223.564,192.589 Z" id="Fill-14" fill="#171816"></path>
            <path d="M235.533,179.277 L237.33,179.277 L237.33,177.127 L235.533,177.127 L235.533,179.277 Z M241.05,190.844 C241.102,190.287 241.127,189.755 241.127,189.249 C241.127,185.251 239.457,182.695 236.724,182.695 C233.509,182.695 229.712,186.592 228.523,190.844 L241.05,190.844 Z M242.797,192.589 L222.373,192.589 L222.373,190.844 L227.056,190.844 L227.056,176.241 L228.903,176.241 L228.498,188.008 C230.22,183.832 233.585,181.074 236.874,181.074 C240.924,181.074 242.949,183.959 242.949,189.653 C242.949,190.54 242.897,191.527 242.797,192.589 L242.797,192.589 Z" id="Fill-15" fill="#171816"></path>
            <path d="M253.425,190.82 L253.425,185.479 C253.425,184.745 253.197,184.112 252.741,183.606 C252.235,183.022 251.525,182.72 250.589,182.72 C249.628,182.72 248.844,183.176 248.236,184.06 C247.705,184.846 247.426,185.732 247.426,186.693 C247.426,187.705 247.654,188.617 248.135,189.4 C248.717,190.363 249.502,190.844 250.488,190.844 L253.425,190.82 Z M258.537,192.589 L255.044,192.589 C254.538,195.196 252.816,196.563 249.907,196.74 L249.907,195.045 L250.134,195.045 C251.755,195.045 252.792,194.21 253.222,192.589 L250.464,192.589 C249.047,192.589 247.881,192.058 246.971,190.971 C246.06,189.882 245.604,188.515 245.604,186.87 C245.604,185.226 246.085,183.858 247.047,182.746 C248.033,181.632 249.248,181.074 250.691,181.074 C253.5,181.074 255.247,182.796 255.247,186.137 L255.247,190.844 L258.537,190.844 L258.537,192.589 L258.537,192.589 Z" id="Fill-16" fill="#171816"></path>
            <path d="M262.13,179.277 L263.927,179.277 L263.927,177.127 L262.13,177.127 L262.13,179.277 Z M258.814,179.277 L260.61,179.277 L260.61,177.127 L258.814,177.127 L258.814,179.277 Z M266.761,192.589 L258.029,192.589 L258.029,190.844 L259.649,190.844 C260.736,190.844 261.446,190.489 261.8,189.807 C262.054,189.326 262.18,188.515 262.18,187.351 L262.18,181.101 L263.952,181.101 L263.952,188.137 C263.952,189.225 263.8,190.135 263.47,190.82 L266.761,190.82 L266.761,192.589 L266.761,192.589 Z" id="Fill-17" fill="#171816"></path>
            <path d="M275.06,192.589 L266.329,192.589 L266.329,190.844 L267.95,190.844 C269.036,190.844 269.746,190.489 270.101,189.807 C270.354,189.326 270.479,188.515 270.479,187.351 L270.479,176.217 L272.252,176.217 L272.252,188.137 C272.252,189.225 272.1,190.135 271.77,190.82 L275.06,190.82 L275.06,192.589" id="Fill-18" fill="#171816"></path>
            <path d="M280.551,176.217 L280.551,188.137 C280.551,191.097 279.312,192.589 276.831,192.589 L274.629,192.589 L274.629,190.844 L276.25,190.844 C277.337,190.844 278.047,190.489 278.4,189.782 C278.653,189.326 278.779,188.515 278.779,187.351 L278.779,176.217 L280.551,176.217" id="Fill-19" fill="#171816"></path>
            <path d="M305.732,192.589 L305.049,192.589 C301.632,192.589 298.847,189.933 298.697,186.464 L293.053,186.464 C290.521,186.464 288.877,188.212 288.877,190.844 C288.877,193.273 290.446,194.891 293.153,194.891 L296.343,194.891 L296.343,196.765 L293.153,196.765 C289.534,196.765 286.954,194.412 286.954,190.718 C286.954,187.857 288.675,185.479 291.206,184.846 C290.699,184.036 290.446,182.998 290.446,181.76 C290.446,178.493 292.345,176.19 295.405,176.19 C297.938,176.19 299.76,177.558 300.188,179.633 L298.267,179.834 C297.987,178.24 297.026,177.457 295.432,177.457 C293.457,177.457 292.368,179.024 292.368,181.734 C292.368,182.796 292.724,183.783 293.406,184.668 L300.215,184.668 L300.215,185.681 C300.215,188.566 302.266,190.82 305.732,190.82 L305.732,192.589" id="Fill-20" fill="#171816"></path>
            <path d="M314.386,179.277 L316.183,179.277 L316.183,177.127 L314.386,177.127 L314.386,179.277 Z M311.07,179.277 L312.868,179.277 L312.868,177.127 L311.07,177.127 L311.07,179.277 Z M316.941,186.668 C316.941,184.137 315.804,182.595 313.728,182.595 C311.476,182.595 310.312,184.289 310.312,186.971 C310.312,189.502 311.551,191.123 313.627,191.123 C315.828,191.123 316.941,189.629 316.941,186.668 Z M318.891,186.845 C318.891,190.135 316.841,192.589 313.627,192.589 L304.643,192.589 L304.643,190.82 L309.578,190.82 C308.742,189.807 308.311,188.491 308.311,186.87 C308.311,183.579 310.362,181.125 313.652,181.125 C316.866,181.125 318.891,183.404 318.891,186.845 L318.891,186.845 Z" id="Fill-21" fill="#171816"></path>
            <path d="M329.366,190.82 L329.366,185.479 C329.366,184.745 329.139,184.112 328.685,183.606 C328.178,183.022 327.469,182.72 326.532,182.72 C325.571,182.72 324.786,183.176 324.179,184.06 C323.648,184.846 323.37,185.732 323.37,186.693 C323.37,187.705 323.597,188.617 324.077,189.4 C324.661,190.363 325.445,190.844 326.431,190.844 L329.366,190.82 Z M334.479,192.589 L330.986,192.589 C330.48,195.196 328.76,196.563 325.85,196.74 L325.85,195.045 L326.077,195.045 C327.698,195.045 328.734,194.21 329.165,192.589 L326.406,192.589 C324.988,192.589 323.824,192.058 322.913,190.971 C322.002,189.882 321.547,188.515 321.547,186.87 C321.547,185.226 322.028,183.858 322.988,182.746 C323.977,181.632 325.191,181.074 326.633,181.074 C329.443,181.074 331.188,182.796 331.188,186.137 L331.188,190.844 L334.479,190.844 L334.479,192.589 L334.479,192.589 Z" id="Fill-22" fill="#171816"></path>
            <path d="M346.222,188.87 C346.222,187.732 345.994,186.821 345.563,186.137 C345.006,185.301 344.196,184.896 343.133,184.896 C341.969,184.896 341.109,185.352 340.525,186.238 C340.046,186.971 339.793,187.934 339.793,189.173 C339.793,190.313 340.046,191.247 340.525,191.957 C341.109,192.791 341.945,193.198 343.032,193.198 C345.158,193.198 346.222,191.755 346.222,188.87 Z M348.271,189.046 C348.271,190.692 347.816,192.033 346.903,193.095 C345.943,194.235 344.652,194.791 343.032,194.791 C341.084,194.791 339.615,194.057 338.654,192.589 L333.771,192.589 L333.771,190.82 L337.921,190.82 C337.769,190.287 337.692,189.704 337.692,189.073 C337.692,187.402 338.174,186.036 339.135,184.948 C340.098,183.858 341.413,183.327 343.058,183.327 C344.702,183.327 346.019,183.884 346.955,184.973 C347.841,186.01 348.271,187.378 348.271,189.046 L348.271,189.046 Z" id="Fill-23" fill="#171816"></path>
            <path d="M364.162,192.589 L359.81,192.589 C359.328,195.196 357.608,196.563 354.672,196.74 L354.672,195.045 C357.025,195.045 358.215,193.754 358.215,190.768 L358.215,181.101 L359.986,181.101 L359.986,190.82 L364.162,190.82 L364.162,192.589" id="Fill-24" fill="#171816"></path>
            <path d="M367.729,196.437 L369.526,196.437 L369.526,194.285 L367.729,194.285 L367.729,196.437 Z M372.336,192.589 L363.604,192.589 L363.604,190.844 L365.225,190.844 C366.313,190.844 367.021,190.489 367.375,189.807 C367.63,189.326 367.756,188.515 367.756,187.351 L367.756,181.101 L369.526,181.101 L369.526,188.137 C369.526,189.225 369.374,190.135 369.045,190.82 L372.336,190.82 L372.336,192.589 L372.336,192.589 Z" id="Fill-25" fill="#171816"></path>
            <path d="M388.734,190.035 L388.734,192.589 L371.195,192.589 L371.195,190.82 L386.584,190.82 C386.608,190.515 386.634,190.21 386.634,189.908 C386.634,187.958 386.179,186.39 385.242,185.226 C384.153,183.858 382.534,183.176 380.383,183.176 L375.169,183.176 C376.08,181.53 377.37,179.227 379.043,176.241 L381.142,176.241 L378.129,181.43 L380.383,181.43 C382.939,181.43 384.989,182.214 386.508,183.808 C387.999,185.376 388.734,187.453 388.734,190.035" id="Fill-26" fill="#171816"></path>
            <path d="M392.125,192.589 L393.896,192.589 L393.896,176.217 L392.125,176.217 L392.125,192.589 Z M395.491,172.573 L394.453,172.673 C394.351,172.09 394.048,171.787 393.517,171.787 C392.834,171.787 392.479,172.243 392.479,173.153 C392.479,173.509 392.555,173.811 392.732,174.066 L395.439,174.066 L395.439,175.077 L390.605,175.077 L390.605,174.066 L391.617,174.066 C391.493,173.787 391.441,173.483 391.441,173.179 C391.441,171.888 392.1,170.952 393.517,170.952 C394.604,170.952 395.264,171.484 395.491,172.573 L395.491,172.573 Z" id="Fill-27" fill="#171816"></path>
            <path d="M86.196,25.228 C89.249,25.228 91.922,24.096 94.206,21.842 C96.46,19.573 97.598,16.909 97.598,13.842 C97.598,10.794 96.46,8.128 94.206,5.85 C91.922,3.599 89.249,2.465 86.196,2.465 C83.137,2.465 80.465,3.599 78.2,5.85 C75.909,8.128 74.804,10.794 74.804,13.842 C74.804,16.909 75.909,19.573 78.2,21.842 C80.465,24.096 83.137,25.228 86.196,25.228" id="Fill-28" fill="#2073AD"></path>
            <path d="M59.267,25.228 C62.328,25.228 65.004,24.096 67.284,21.842 C69.535,19.573 70.667,16.909 70.667,13.842 C70.667,10.794 69.535,8.128 67.284,5.85 C65.004,3.599 62.328,2.465 59.267,2.465 C56.214,2.465 53.528,3.599 51.277,5.85 C48.986,8.128 47.879,10.794 47.879,13.842 C47.879,16.909 48.986,19.573 51.277,21.842 C53.528,24.096 56.214,25.228 59.267,25.228" id="Fill-29" fill="#2073AD"></path>
            <path d="M273.962,124.532 C270.894,124.532 268.223,125.663 265.958,127.914 C263.668,130.193 262.572,132.857 262.572,135.902 C262.572,138.967 263.668,141.639 265.958,143.903 C268.223,146.161 270.894,147.286 273.962,147.286 C277.008,147.286 279.681,146.161 281.971,143.903 C284.221,141.639 285.366,138.967 285.366,135.902 C285.366,132.857 284.221,130.193 281.971,127.914 C279.681,125.663 277.008,124.532 273.962,124.532" id="Fill-30" fill="#2073AD"></path>
            <path d="M247.03,124.532 C243.979,124.532 241.294,125.663 239.039,127.914 C236.751,130.193 235.644,132.857 235.644,135.902 C235.644,138.967 236.751,141.639 239.039,143.903 C241.294,146.161 243.979,147.286 247.03,147.286 C250.086,147.286 252.762,146.161 255.034,143.903 C257.287,141.639 258.433,138.967 258.433,135.902 C258.433,132.857 257.287,130.193 255.034,127.914 C252.762,125.663 250.086,124.532 247.03,124.532" id="Fill-31" fill="#2073AD"></path>
            <path d="M360.447,124.532 C357.387,124.532 354.706,125.663 352.451,127.914 C350.153,130.193 349.059,132.857 349.059,135.902 C349.059,138.967 350.153,141.639 352.451,143.903 C354.706,146.161 357.387,147.286 360.447,147.286 C363.498,147.286 366.171,146.161 368.456,143.903 C370.707,141.639 371.852,138.967 371.852,135.902 C371.852,132.857 370.707,130.193 368.456,127.914 C366.171,125.663 363.498,124.532 360.447,124.532" id="Fill-32" fill="#2073AD"></path>
            <path d="M372.443,33.347 L372.443,67.127 C372.647,77.976 364.543,86.971 354.51,86.971 L271.385,86.971 L271.385,34.321 L248.392,34.321 L248.463,87.219 L147.659,87.219 L147.723,34.321 L124.718,34.321 L124.718,86.971 L41.601,86.971 C31.573,86.971 23.468,77.976 23.672,67.127 L23.672,33.347 L0.681,33.347 L0.681,67.127 C0.439,90.969 18.981,110.54 41.797,110.372 L354.318,110.372 C377.133,110.54 395.678,90.969 395.431,67.127 L395.431,33.347 L372.443,33.347" id="Fill-33" fill="#2073AD"></path>
            <g id="Group-37" transform="translate(411.000000, 0.000000)" fill="#F4BA3B">
                <polyline id="Fill-34" points="0.726 48.054 64.662 15.099 128.598 48.054 128.598 33.406 64.662 0.56 0.726 33.406 0.726 48.054"></polyline>
            </g>
        </g>
    </g>
</svg>