<?xml version="1.0" encoding="UTF-8" standalone="no"?>
<svg width="547px" height="172px" viewBox="0 0 547 172" version="1.1" xmlns="http://www.w3.org/2000/svg" xmlns:xlink="http://www.w3.org/1999/xlink">
    <!-- Generator: Sketch 42 (36781) - http://www.bohemiancoding.com/sketch -->
    <title>Group 3</title>
    <desc>Created with Sketch.</desc>
    <defs></defs>
    <g id="Page-1" stroke="none" stroke-width="1" fill="none" fill-rule="evenodd">
        <g id="Group-3">
            <polyline id="Fill-3" fill="#F4BA3B" points="0.706 37.058 50.398 11.445 100.091 37.058 100.091 25.673 50.398 0.144 0.706 25.673 0.706 37.058"></polyline>
            <path d="M249.96,98.88 C244.785,98.892 240.712,94.151 240.602,88.27 C240.712,82.188 244.785,77.829 249.96,78 L309.868,78 L309.868,85.928 C310.094,93.056 304.581,98.892 297.704,98.88 L249.96,98.88 Z M297.704,25.651 L225.197,25.651 L225.197,41.384 L297.704,41.384 C304.584,41.279 310.106,46.929 309.868,54.159 L309.868,62.082 L249.96,62.082 C236.246,61.88 225.248,73.678 225.156,88.27 C225.248,102.675 236.246,114.465 249.96,114.428 L297.704,114.428 C313.122,114.465 325.106,101.57 325.315,85.928 L325.315,54.159 C325.106,38.419 313.122,25.522 297.704,25.651 L297.704,25.651 Z" id="Fill-4" fill="#2073AD"></path>
            <path d="M420.473,25.65 L435.924,25.65 L435.924,85.554 C435.771,101.547 423.305,114.49 407.832,114.415 L337.141,114.428 L337.141,98.887 L407.832,98.887 C414.787,98.947 420.301,92.85 420.473,85.554 L420.473,78 L364.762,78 C349.447,78.127 336.992,64.907 337.143,48.876 L337.143,25.65 L352.598,25.65 L352.598,48.876 C352.463,56.167 357.895,62.082 364.645,62.082 L420.473,62.074 L420.473,25.65" id="Fill-5" fill="#2073AD"></path>
            <path d="M140.821,98.88 C134.225,98.892 128.706,93.056 128.659,85.928 L128.659,78 C128.659,78 189.023,77.829 189.023,78 C194.022,77.829 198.084,82.188 197.929,88.27 C198.084,94.151 194.022,98.892 189.023,98.88 L140.821,98.88 Z M128.659,62.071 L128.659,25.651 L113.211,25.651 L113.211,85.928 C113.323,101.644 125.779,114.465 140.821,114.428 L189.023,114.428 C202.55,114.465 213.554,102.675 213.374,88.27 C213.554,73.678 202.55,61.88 189.023,62.082 L128.659,62.071 L128.659,62.071 Z" id="Fill-6" fill="#2073AD"></path>
            <path d="M546.057,62.076 L546.057,78 L463.207,77.993 L463.207,85.547 C462.994,92.843 468.979,98.925 475.838,98.873 L546.057,98.873 L546.057,114.428 L475.838,114.428 C460.441,114.514 447.99,101.518 447.752,85.547 L447.752,25.643 L463.203,25.643 L463.203,62.09 L546.057,62.076" id="Fill-7" fill="#2073AD"></path>
            <path d="M131.984,144.953 C132.124,144.953 132.228,145.058 132.228,145.197 L132.228,146.209 C132.228,146.314 132.124,146.454 131.984,146.454 L123.575,146.454 L123.575,168.471 C123.575,168.61 123.47,168.715 123.366,168.715 L122.144,168.715 C122.04,168.715 121.9,168.61 121.9,168.471 L121.9,146.454 L113.525,146.454 C113.385,146.454 113.281,146.314 113.281,146.209 L113.281,145.197 C113.281,145.058 113.385,144.953 113.525,144.953 L131.984,144.953" id="Fill-8" fill="#0A0A08"></path>
            <path d="M136.483,156.258 C137.565,154.061 139.659,152.769 142.415,152.769 C144.333,152.769 145.834,153.222 146.917,154.129 C148.172,155.247 148.8,157.061 148.8,159.539 L148.8,168.471 C148.8,168.61 148.696,168.715 148.556,168.715 L147.509,168.715 C147.405,168.715 147.3,168.61 147.3,168.471 L147.3,159.922 C147.3,157.829 146.881,156.293 145.799,155.316 C144.962,154.548 143.811,154.165 142.17,154.165 C140.147,154.165 138.506,155.037 137.46,156.921 C136.832,158.107 136.483,159.468 136.483,160.864 L136.483,168.471 C136.483,168.61 136.343,168.715 136.239,168.715 L135.192,168.715 C135.052,168.715 134.948,168.61 134.948,168.471 L134.948,145.197 C134.948,145.058 135.052,144.953 135.192,144.953 L136.239,144.953 C136.343,144.953 136.483,145.058 136.483,145.197 L136.483,156.258" id="Fill-9" fill="#0A0A08"></path>
            <path d="M166.349,160.027 C166.315,158.248 165.721,156.817 164.849,155.84 C163.907,154.792 162.407,153.991 160.592,153.991 C158.499,153.991 156.928,154.792 155.917,156.049 C155.044,157.061 154.555,158.527 154.451,160.027 L166.349,160.027 Z M166.315,166.308 C166.559,166.167 166.628,166.203 166.733,166.343 L167.083,167.04 C167.152,167.18 167.083,167.285 166.943,167.389 C165.652,168.192 163.453,169.064 161.01,169.064 C158.428,169.064 156.265,168.087 154.8,166.377 C153.579,164.982 152.88,163.027 152.88,160.725 C152.88,158.527 153.579,156.572 154.87,155.142 C156.161,153.676 158.08,152.769 160.592,152.769 C163,152.769 164.849,153.747 166.07,155.177 C167.256,156.538 167.919,158.527 167.85,160.899 C167.85,161.109 167.71,161.213 167.5,161.213 L154.451,161.213 C154.555,162.993 155.044,164.388 155.951,165.504 C157.103,166.971 158.917,167.843 161.081,167.843 C163.244,167.843 165.058,167.11 166.315,166.308 L166.315,166.308 Z" id="Fill-10" fill="#0A0A08"></path>
            <path d="M204.414,168.471 C204.414,168.61 204.309,168.715 204.169,168.715 L203.019,168.715 C202.878,168.715 202.774,168.61 202.774,168.471 L202.774,147.849 L193.527,162.748 C193.387,162.958 193.318,163.027 193.109,163.027 L192.271,163.027 C192.096,163.027 191.992,162.958 191.852,162.748 L182.606,147.849 L182.606,168.471 C182.606,168.61 182.501,168.715 182.362,168.715 L181.209,168.715 C181.071,168.715 180.966,168.61 180.966,168.471 L180.966,145.197 C180.966,145.058 181.071,144.953 181.209,144.953 L182.466,144.953 C182.675,144.953 182.78,144.988 182.919,145.232 L192.69,161.109 L202.459,145.232 C202.599,144.988 202.705,144.953 202.914,144.953 L204.169,144.953 C204.309,144.953 204.414,145.058 204.414,145.197 L204.414,168.471" id="Fill-11" fill="#0A0A08"></path>
            <path d="M210.029,153.083 L211.075,153.083 C211.18,153.083 211.32,153.188 211.32,153.328 L211.32,168.471 C211.32,168.61 211.18,168.715 211.075,168.715 L210.029,168.715 C209.889,168.715 209.785,168.61 209.785,168.471 L209.785,153.328 C209.785,153.188 209.889,153.083 210.029,153.083 Z M209.54,145.337 C209.54,144.813 209.958,144.36 210.517,144.36 C211.04,144.36 211.459,144.813 211.459,145.337 C211.459,145.86 211.04,146.314 210.517,146.314 C209.958,146.314 209.54,145.86 209.54,145.337 L209.54,145.337 Z" id="Fill-12" fill="#0A0A08"></path>
            <path d="M227.543,167.459 L227.543,154.863 C226.182,154.339 225.101,154.061 223.461,154.061 C221.297,154.061 219.483,155.037 218.367,156.712 C217.599,157.829 217.214,159.259 217.214,160.934 C217.214,162.784 217.739,164.214 218.681,165.26 C220.042,166.761 222.134,167.459 224.647,167.459 L227.543,167.459 Z M224.543,168.715 C221.647,168.715 219.134,167.878 217.529,166.167 C216.342,164.876 215.645,163.167 215.645,160.934 C215.645,158.981 216.168,157.201 217.181,155.84 C218.506,153.956 220.705,152.769 223.391,152.769 C224.997,152.769 226.182,153.048 227.543,153.537 L227.543,145.197 C227.543,145.058 227.649,144.953 227.788,144.953 L228.834,144.953 C228.939,144.953 229.043,145.058 229.043,145.197 L229.043,168.471 C229.043,168.61 228.939,168.715 228.834,168.715 L224.543,168.715 L224.543,168.715 Z" id="Fill-13" fill="#0A0A08"></path>
            <path d="M245.301,167.459 L245.301,154.863 C243.941,154.339 242.859,154.061 241.22,154.061 C239.056,154.061 237.241,155.037 236.125,156.712 C235.358,157.829 234.973,159.259 234.973,160.934 C234.973,162.784 235.497,164.214 236.439,165.26 C237.8,166.761 239.893,167.459 242.406,167.459 L245.301,167.459 Z M242.301,168.715 C239.405,168.715 236.893,167.878 235.288,166.167 C234.101,164.876 233.403,163.167 233.403,160.934 C233.403,158.981 233.926,157.201 234.939,155.84 C236.265,153.956 238.462,152.769 241.15,152.769 C242.755,152.769 243.941,153.048 245.301,153.537 L245.301,145.197 C245.301,145.058 245.407,144.953 245.546,144.953 L246.592,144.953 C246.698,144.953 246.801,145.058 246.801,145.197 L246.801,168.471 C246.801,168.61 246.698,168.715 246.592,168.715 L242.301,168.715 L242.301,168.715 Z" id="Fill-14" fill="#0A0A08"></path>
            <path d="M252.383,144.953 L253.43,144.953 C253.536,144.953 253.674,145.058 253.674,145.197 L253.674,168.471 C253.674,168.61 253.536,168.715 253.43,168.715 L252.383,168.715 C252.245,168.715 252.139,168.61 252.139,168.471 L252.139,145.197 C252.139,145.058 252.245,144.953 252.383,144.953" id="Fill-15" fill="#0A0A08"></path>
            <path d="M271.503,160.027 C271.468,158.248 270.875,156.817 270.003,155.84 C269.061,154.792 267.561,153.991 265.747,153.991 C263.653,153.991 262.083,154.792 261.071,156.049 C260.199,157.061 259.71,158.527 259.605,160.027 L271.503,160.027 Z M271.468,166.308 C271.713,166.167 271.783,166.203 271.887,166.343 L272.237,167.04 C272.307,167.18 272.237,167.285 272.097,167.389 C270.806,168.192 268.608,169.064 266.166,169.064 C263.583,169.064 261.419,168.087 259.955,166.377 C258.733,164.982 258.036,163.027 258.036,160.725 C258.036,158.527 258.733,156.572 260.025,155.142 C261.315,153.676 263.234,152.769 265.747,152.769 C268.154,152.769 270.003,153.747 271.224,155.177 C272.411,156.538 273.074,158.527 273.004,160.899 C273.004,161.109 272.864,161.213 272.656,161.213 L259.605,161.213 C259.71,162.993 260.199,164.388 261.106,165.504 C262.257,166.971 264.071,167.843 266.235,167.843 C268.398,167.843 270.212,167.11 271.468,166.308 L271.468,166.308 Z" id="Fill-16" fill="#0A0A08"></path>
            <path d="M302.45,144.953 C302.59,144.953 302.695,145.058 302.695,145.197 L302.695,146.209 C302.695,146.314 302.59,146.454 302.45,146.454 L287.795,146.454 L287.795,156.084 L300.67,156.084 C300.776,156.084 300.916,156.223 300.916,156.328 L300.916,157.34 C300.916,157.479 300.776,157.584 300.67,157.584 L287.795,157.584 L287.795,167.25 L302.45,167.25 C302.59,167.25 302.695,167.354 302.695,167.494 L302.695,168.471 C302.695,168.61 302.59,168.715 302.45,168.715 L286.364,168.715 C286.224,168.715 286.121,168.61 286.121,168.471 L286.121,145.197 C286.121,145.058 286.224,144.953 286.364,144.953 L302.45,144.953" id="Fill-17" fill="#0A0A08"></path>
            <path d="M316.335,166.622 L316.335,160.481 C314.661,160.481 312.009,160.62 310.054,161.213 C308.275,161.737 306.95,162.679 306.95,164.458 C306.95,165.714 307.577,166.552 308.518,167.075 C309.391,167.633 310.579,167.843 311.729,167.843 C313.438,167.843 314.94,167.459 316.335,166.622 Z M307.019,155.456 C306.809,155.561 306.704,155.561 306.636,155.386 L306.286,154.723 C306.217,154.548 306.286,154.444 306.425,154.339 C308.205,153.257 310.195,152.769 312.183,152.769 C313.649,152.769 315.428,153.048 316.579,154.409 C317.348,155.351 317.87,156.677 317.87,158.736 L317.87,168.471 C317.87,168.61 317.732,168.715 317.626,168.715 L316.719,168.715 C316.579,168.715 316.476,168.61 316.476,168.471 L316.476,167.808 L316.335,167.808 C314.661,168.75 313.23,169.064 311.345,169.064 C309.985,169.064 308.484,168.75 307.368,168.017 C306.25,167.319 305.518,166.203 305.518,164.563 C305.518,162.365 306.879,161.144 308.869,160.411 C311.17,159.608 314.137,159.434 316.335,159.329 L316.335,158.736 C316.335,157.026 316.022,156.014 315.358,155.247 C314.521,154.235 313.23,153.991 312.042,153.991 C309.985,153.991 308.416,154.654 307.019,155.456 L307.019,155.456 Z" id="Fill-18" fill="#0A0A08"></path>
            <path d="M331.232,164.807 C331.232,163.203 330.081,162.504 328.58,161.841 C327.602,161.388 325.823,160.899 324.567,160.306 C323.171,159.677 321.986,158.631 321.986,156.748 C321.986,154.235 323.973,152.769 327.5,152.769 C329.522,152.769 331.093,153.292 332.069,153.816 C332.244,153.92 332.244,154.061 332.174,154.2 L331.826,154.968 C331.755,155.142 331.65,155.142 331.477,155.072 C330.325,154.514 329.104,154.061 327.602,154.061 C324.916,154.061 323.52,155.037 323.52,156.748 C323.52,158.107 324.427,158.771 325.615,159.294 C326.835,159.818 328.615,160.375 329.627,160.83 C331.372,161.632 332.803,162.609 332.803,164.667 C332.803,167.494 330.64,169.064 327.324,169.064 C324.708,169.064 322.893,168.296 321.916,167.773 C321.775,167.668 321.741,167.564 321.81,167.424 L322.229,166.587 C322.299,166.412 322.404,166.377 322.58,166.482 C323.73,167.18 325.301,167.808 327.29,167.808 C329.733,167.808 331.232,166.796 331.232,164.807" id="Fill-19" fill="#0A0A08"></path>
            <path d="M338.73,163.516 C338.73,164.738 338.906,165.749 339.395,166.482 C339.92,167.285 340.826,167.738 342.291,167.738 C343.373,167.738 344.35,167.494 345.467,166.692 C345.676,166.552 345.779,166.587 345.85,166.726 L346.232,167.494 C346.303,167.633 346.232,167.738 346.094,167.843 C344.873,168.645 343.479,169.064 341.941,169.064 C340.092,169.064 338.906,168.506 338.174,167.564 C337.475,166.587 337.232,165.226 337.232,163.691 L337.232,154.305 L335.277,154.305 C335.172,154.305 335.066,154.2 335.066,154.061 L335.066,153.328 C335.066,153.188 335.172,153.083 335.277,153.083 L337.232,153.083 L337.232,150.082 C337.232,149.943 337.336,149.838 337.441,149.838 L338.488,149.838 C338.627,149.838 338.73,149.943 338.73,150.082 L338.73,153.083 L344.77,153.083 C344.906,153.083 345.012,153.188 345.012,153.328 L345.012,154.061 C345.012,154.2 344.906,154.305 344.77,154.305 L338.73,154.305 L338.73,163.516" id="Fill-20" fill="#0A0A08"></path>
            <path d="M348.361,148.896 C348.188,148.965 348.082,148.965 347.977,148.827 L347.838,148.546 C347.734,148.408 347.803,148.302 347.908,148.199 C348.256,147.918 348.57,147.605 348.57,147.186 C348.57,146.489 347.77,146.489 347.77,145.616 C347.77,145.023 348.188,144.604 348.814,144.604 C349.652,144.604 350.07,145.302 350.07,146.174 C350.07,147.256 349.338,148.408 348.361,148.896" id="Fill-21" fill="#0A0A08"></path>
            <path d="M362.91,164.807 C362.91,163.203 361.76,162.504 360.26,161.841 C359.281,161.388 357.502,160.899 356.246,160.306 C354.85,159.677 353.664,158.631 353.664,156.748 C353.664,154.235 355.652,152.769 359.178,152.769 C361.201,152.769 362.771,153.292 363.748,153.816 C363.924,153.92 363.924,154.061 363.854,154.2 L363.504,154.968 C363.434,155.142 363.33,155.142 363.156,155.072 C362.004,154.514 360.783,154.061 359.281,154.061 C356.594,154.061 355.199,155.037 355.199,156.748 C355.199,158.107 356.105,158.771 357.293,159.294 C358.514,159.818 360.293,160.375 361.307,160.83 C363.051,161.632 364.482,162.609 364.482,164.667 C364.482,167.494 362.318,169.064 359.004,169.064 C356.387,169.064 354.572,168.296 353.594,167.773 C353.455,167.668 353.42,167.564 353.488,167.424 L353.908,166.587 C353.979,166.412 354.084,166.377 354.258,166.482 C355.408,167.18 356.98,167.808 358.969,167.808 C361.412,167.808 362.91,166.796 362.91,164.807" id="Fill-22" fill="#0A0A08"></path>
            <path d="M382.135,162.818 L389.461,162.818 L390.963,155.735 L383.635,155.735 L382.135,162.818 Z M390.473,164.11 L388.973,171.228 C388.902,171.402 388.799,171.472 388.658,171.472 L387.893,171.472 C387.717,171.472 387.646,171.332 387.682,171.158 L389.184,164.11 L381.889,164.11 L380.391,171.228 C380.32,171.402 380.215,171.472 380.074,171.472 L379.309,171.472 C379.133,171.472 379.063,171.367 379.098,171.158 L380.6,164.11 L374.947,164.11 C374.807,164.11 374.701,164.004 374.701,163.866 L374.701,163.062 C374.701,162.958 374.807,162.818 374.947,162.818 L380.877,162.818 L382.379,155.735 L376.656,155.735 C376.516,155.735 376.41,155.63 376.41,155.491 L376.41,154.688 C376.41,154.583 376.516,154.444 376.656,154.444 L382.623,154.444 L384.158,147.326 C384.193,147.152 384.332,147.117 384.471,147.117 L385.17,147.117 C385.379,147.117 385.449,147.256 385.379,147.5 L383.879,154.444 L391.24,154.444 L392.742,147.326 C392.777,147.152 392.916,147.117 393.055,147.117 L393.789,147.117 C393.998,147.117 394.033,147.221 393.963,147.5 L392.496,154.444 L398.221,154.444 C398.324,154.444 398.43,154.583 398.43,154.688 L398.43,155.491 C398.43,155.63 398.324,155.735 398.221,155.735 L392.219,155.735 L390.752,162.818 L396.477,162.818 C396.615,162.818 396.719,162.958 396.719,163.062 L396.719,163.866 C396.719,164.004 396.615,164.11 396.477,164.11 L390.473,164.11 L390.473,164.11 Z" id="Fill-23" fill="#0A0A08"></path>
            <path d="M403.348,148.617 C403.102,148.687 402.963,148.652 402.963,148.373 L402.963,147.465 C402.963,147.291 402.998,147.186 403.207,147.117 L408.756,144.813 C408.963,144.744 409.139,144.674 409.277,144.674 L410.012,144.674 C410.152,144.674 410.219,144.779 410.219,144.918 L410.219,167.285 L415.174,167.285 C415.314,167.285 415.42,167.389 415.42,167.494 L415.42,168.471 C415.42,168.61 415.314,168.715 415.174,168.715 L403.313,168.715 C403.207,168.715 403.102,168.61 403.102,168.471 L403.102,167.494 C403.102,167.389 403.207,167.285 403.313,167.285 L408.545,167.285 L408.545,146.489 L403.348,148.617" id="Fill-24" fill="#0A0A08"></path>
            <path d="M428.605,166.901 C428.465,166.796 428.465,166.692 428.535,166.517 L429.094,165.61 C429.129,165.471 429.27,165.401 429.441,165.54 C430.943,166.866 432.582,167.599 434.396,167.599 C436.281,167.599 438.201,166.971 439.563,165.504 C440.678,164.319 441.377,162.54 441.377,160.097 L441.377,145.197 C441.377,145.058 441.48,144.953 441.619,144.953 L442.807,144.953 C442.945,144.953 443.051,145.058 443.051,145.197 L443.051,160.166 C443.051,163.203 442.109,165.295 440.607,166.726 C438.969,168.332 436.666,169.064 434.432,169.064 C432.164,169.064 430.035,168.087 428.605,166.901" id="Fill-25" fill="#0A0A08"></path>
            <path d="M450.586,165.645 C451.807,166.971 453.551,167.808 455.541,167.808 C457.564,167.808 459.309,166.971 460.529,165.645 C461.611,164.423 462.24,162.784 462.24,160.934 C462.24,159.084 461.611,157.411 460.529,156.189 C459.309,154.863 457.564,154.061 455.541,154.061 C453.551,154.061 451.807,154.863 450.586,156.189 C449.504,157.411 448.842,159.084 448.842,160.934 C448.842,162.784 449.504,164.423 450.586,165.645 Z M449.574,155.211 C451.039,153.711 453.133,152.769 455.541,152.769 C457.982,152.769 460.076,153.711 461.541,155.211 C462.938,156.642 463.775,158.666 463.775,160.934 C463.775,163.167 462.938,165.191 461.541,166.622 C460.076,168.158 457.982,169.064 455.541,169.064 C453.133,169.064 451.039,168.158 449.574,166.622 C448.178,165.191 447.34,163.167 447.34,160.934 C447.34,158.666 448.178,156.642 449.574,155.211 L449.574,155.211 Z" id="Fill-26" fill="#0A0A08"></path>
            <path d="M469.67,167.564 C470.611,167.704 471.938,167.808 472.951,167.808 C475.148,167.808 477.484,167.145 478.881,165.436 C479.789,164.354 480.348,162.888 480.348,160.934 C480.348,158.527 479.65,156.851 478.568,155.77 C477.381,154.583 475.811,154.061 474.242,154.061 C472.322,154.061 470.926,154.548 469.67,155.316 L469.67,167.564 Z M468.133,168.332 L468.133,145.197 C468.133,145.058 468.238,144.953 468.379,144.953 L469.424,144.953 C469.529,144.953 469.67,145.058 469.67,145.197 L469.67,153.991 C471.066,153.188 472.564,152.769 474.484,152.769 C476.51,152.769 478.498,153.466 479.893,155.001 C481.113,156.293 481.883,158.283 481.883,160.934 C481.883,163.203 481.219,164.912 480.137,166.238 C478.428,168.227 475.67,169.064 472.846,169.064 C471.449,169.064 469.182,168.924 468.379,168.68 C468.203,168.645 468.133,168.541 468.133,168.332 L468.133,168.332 Z" id="Fill-27" fill="#0A0A08"></path>
            <path d="M494.055,166.761 C493.918,166.657 493.848,166.552 493.918,166.412 L494.406,165.401 C494.475,165.26 494.58,165.191 494.754,165.331 C496.186,166.273 498.383,167.633 501.838,167.633 C503.723,167.633 505.221,167.18 506.27,166.412 C507.525,165.471 508.154,164.075 508.154,162.399 C508.154,160.375 506.863,159.12 505.117,158.318 C502.955,157.305 500.652,157.061 497.895,155.874 C495.697,154.933 494.09,153.398 494.09,150.815 C494.09,149 494.719,147.5 495.939,146.489 C497.301,145.267 499.395,144.639 502.186,144.639 C504.699,144.639 507.105,145.267 508.748,146.279 C508.92,146.349 508.955,146.489 508.85,146.628 L508.396,147.605 C508.361,147.745 508.223,147.78 508.014,147.674 C506.234,146.628 504,146.104 502.115,146.104 C499.779,146.104 498.068,146.663 497.023,147.639 C496.221,148.408 495.836,149.489 495.836,150.745 C495.836,152.735 497.23,153.885 499.465,154.758 C501.979,155.7 504.35,155.944 506.688,157.165 C508.361,158.073 509.934,159.677 509.934,162.225 C509.934,164.529 509.061,166.273 507.525,167.424 C506.129,168.506 504.176,169.064 501.838,169.064 C498.244,169.064 495.732,167.843 494.055,166.761" id="Fill-28" fill="#0A0A08"></path>
            <path d="M514.258,153.083 L515.305,153.083 C515.41,153.083 515.549,153.188 515.549,153.328 L515.549,168.471 C515.549,168.61 515.41,168.715 515.305,168.715 L514.258,168.715 C514.119,168.715 514.014,168.61 514.014,168.471 L514.014,153.328 C514.014,153.188 514.119,153.083 514.258,153.083 Z M513.768,145.337 C513.768,144.813 514.188,144.36 514.746,144.36 C515.27,144.36 515.688,144.813 515.688,145.337 C515.688,145.86 515.27,146.314 514.746,146.314 C514.188,146.314 513.768,145.86 513.768,145.337 L513.768,145.337 Z" id="Fill-29" fill="#0A0A08"></path>
            <path d="M522.666,163.516 C522.666,164.738 522.842,165.749 523.33,166.482 C523.854,167.285 524.762,167.738 526.225,167.738 C527.307,167.738 528.285,167.494 529.4,166.692 C529.611,166.552 529.715,166.587 529.783,166.726 L530.168,167.494 C530.238,167.633 530.168,167.738 530.029,167.843 C528.809,168.645 527.412,169.064 525.877,169.064 C524.027,169.064 522.842,168.506 522.109,167.564 C521.41,166.587 521.166,165.226 521.166,163.691 L521.166,154.305 L519.213,154.305 C519.107,154.305 519.002,154.2 519.002,154.061 L519.002,153.328 C519.002,153.188 519.107,153.083 519.213,153.083 L521.166,153.083 L521.166,150.082 C521.166,149.943 521.27,149.838 521.375,149.838 L522.422,149.838 C522.561,149.838 522.666,149.943 522.666,150.082 L522.666,153.083 L528.703,153.083 C528.842,153.083 528.947,153.188 528.947,153.328 L528.947,154.061 C528.947,154.2 528.842,154.305 528.703,154.305 L522.666,154.305 L522.666,163.516" id="Fill-30" fill="#0A0A08"></path>
            <path d="M544.439,160.027 C544.404,158.248 543.811,156.817 542.938,155.84 C541.996,154.792 540.496,153.991 538.682,153.991 C536.586,153.991 535.018,154.792 534.006,156.049 C533.133,157.061 532.645,158.527 532.539,160.027 L544.439,160.027 Z M544.404,166.308 C544.646,166.167 544.717,166.203 544.822,166.343 L545.17,167.04 C545.24,167.18 545.17,167.285 545.033,167.389 C543.74,168.192 541.541,169.064 539.1,169.064 C536.52,169.064 534.354,168.087 532.889,166.377 C531.666,164.982 530.971,163.027 530.971,160.725 C530.971,158.527 531.666,156.572 532.959,155.142 C534.25,153.676 536.168,152.769 538.682,152.769 C541.088,152.769 542.938,153.747 544.158,155.177 C545.346,156.538 546.008,158.527 545.938,160.899 C545.938,161.109 545.799,161.213 545.59,161.213 L532.539,161.213 C532.645,162.993 533.133,164.388 534.041,165.504 C535.193,166.971 537.006,167.843 539.17,167.843 C541.334,167.843 543.148,167.11 544.404,166.308 L544.404,166.308 Z" id="Fill-31" fill="#0A0A08"></path>
        </g>
    </g>
</svg>