<?xml version="1.0" encoding="UTF-8" standalone="no"?>
<svg width="451px" height="96px" viewBox="0 0 451 96" version="1.1" xmlns="http://www.w3.org/2000/svg" xmlns:xlink="http://www.w3.org/1999/xlink">
    <!-- Generator: Sketch 42 (36781) - http://www.bohemiancoding.com/sketch -->
    <title>Group 2</title>
    <desc>Created with Sketch.</desc>
    <defs></defs>
    <g id="Page-1" stroke="none" stroke-width="1" fill="none" fill-rule="evenodd">
        <g id="Group-2" fill-rule="nonzero" fill="#FFFFFF">
            <path d="M448.91,48.94 C448.15337,48.94 447.54,48.3266301 447.54,47.57 C447.54,46.8133699 448.15337,46.2 448.91,46.2 C449.66663,46.2 450.28,46.8133699 450.28,47.57 C450.28,48.3266301 449.66663,48.94 448.91,48.94 L448.91,48.94 Z" id="Shape"></path>
            <circle id="Oval" cx="448.72" cy="51.79" r="1.32"></circle>
            <ellipse id="Oval" cx="448.15" cy="55.98" rx="1.21" ry="1.2"></ellipse>
            <path d="M447.19,61.18 C446.637715,61.18 446.19,60.7322847 446.19,60.18 C446.19,59.6277153 446.637715,59.18 447.19,59.18 C447.742285,59.18 448.19,59.6277153 448.19,60.18 C448.19,60.7322847 447.742285,61.18 447.19,61.18 Z" id="Shape"></path>
            <circle id="Oval" cx="445.87" cy="64.11" r="0.89"></circle>
            <circle id="Oval" cx="444.18" cy="67.99" r="0.79"></circle>
            <ellipse id="Oval" cx="442.15" cy="71.7" rx="0.77" ry="0.76"></ellipse>
            <circle id="Oval" cx="439.79" cy="75.2" r="0.8"></circle>
            <path d="M437.12,79.33 C436.650558,79.33 436.27,78.949442 436.27,78.48 C436.27,78.010558 436.650558,77.63 437.12,77.63 C437.589442,77.63 437.97,78.010558 437.97,78.48 C437.97,78.949442 437.589442,79.33 437.12,79.33 L437.12,79.33 Z" id="Shape"></path>
            <path d="M434.16,82.44 C433.646375,82.44 433.23,82.0236248 433.23,81.51 C433.23,80.9963752 433.646375,80.58 434.16,80.58 C434.673625,80.58 435.09,80.9963752 435.09,81.51 C435.09,82.0236248 434.673625,82.44 434.16,82.44 Z" id="Shape"></path>
            <circle id="Oval" cx="430.95" cy="84.25" r="1.03"></circle>
            <path d="M427.5,87.84 C427.033962,87.8399824 426.614012,87.5586995 426.436615,87.127745 C426.259219,86.6967905 426.359455,86.2013803 426.690429,85.873284 C427.021404,85.5451877 427.51767,85.4492823 427.947059,85.6304355 C428.376448,85.8115887 428.654053,86.2339798 428.65,86.7 C428.644511,87.3312188 428.131243,87.8400239 427.5,87.84 L427.5,87.84 Z" id="Shape"></path>
            <circle id="Oval" cx="423.84" cy="88.81" r="1.27"></circle>
            <path d="M420,91.96 C419.441842,91.96 418.938644,91.6237738 418.725046,91.1081031 C418.511448,90.5924325 418.629515,89.9988699 419.024193,89.6041926 C419.41887,89.2095154 420.012432,89.0914485 420.528103,89.3050462 C421.043774,89.518644 421.38,90.0218421 421.38,90.58 C421.38,91.342153 420.762153,91.96 420,91.96 Z" id="Shape"></path>
            <circle id="Oval" cx="416.01" cy="92" r="1.47"></circle>
            <circle id="Oval" cx="411.92" cy="93.05" r="1.54"></circle>
            <circle id="Oval" cx="407.74" cy="93.71" r="1.58"></circle>
            <circle id="Oval" cx="403.52" cy="94" r="1.59"></circle>
            <circle id="Oval" cx="399.29" cy="93.9" r="1.6"></circle>
            <circle id="Oval" cx="395.09" cy="93.42" r="1.61"></circle>
            <circle id="Oval" cx="390.95" cy="92.57" r="1.62"></circle>
            <circle id="Oval" cx="386.91" cy="91.34" r="1.61"></circle>
            <circle id="Oval" cx="383" cy="89.74" r="1.61"></circle>
            <circle id="Oval" cx="379.24" cy="87.79" r="1.61"></circle>
            <circle id="Oval" cx="375.68" cy="85.51" r="1.59"></circle>
            <circle id="Oval" cx="372.34" cy="82.92" r="1.58"></circle>
            <circle id="Oval" cx="369.25" cy="80.03" r="1.56"></circle>
            <path d="M366.44,78.42 C365.589481,78.42 364.9,77.7305185 364.9,76.88 C364.9,76.0294815 365.589481,75.34 366.44,75.34 C367.290519,75.34 367.98,76.0294815 367.98,76.88 C367.98,77.7305185 367.290519,78.42 366.44,78.42 L366.44,78.42 Z" id="Shape"></path>
            <circle id="Oval" cx="363.92" cy="73.48" r="1.52"></circle>
            <ellipse id="Oval" cx="361.72" cy="69.87" rx="1.49" ry="1.5"></ellipse>
            <circle id="Oval" cx="359.86" cy="66.07" r="1.47"></circle>
            <path d="M358.36,63.57 C357.775122,63.5862371 357.238567,63.2469613 357.002473,62.7116058 C356.766379,62.1762503 356.877691,61.5512626 357.284101,61.1303385 C357.69051,60.7094144 358.311209,60.5762484 358.854516,60.7934182 C359.397824,61.0105879 359.755711,61.5349125 359.76,62.12 C359.760465,62.9016862 359.141221,63.5430454 358.36,63.57 L358.36,63.57 Z" id="Shape"></path>
            <circle id="Oval" cx="357.21" cy="58.05" r="1.42"></circle>
            <circle id="Oval" cx="356.45" cy="53.89" r="1.39"></circle>
            <circle id="Oval" cx="356.07" cy="49.68" r="1.36"></circle>
            <circle id="Oval" cx="356.07" cy="45.46" r="1.34"></circle>
            <circle id="Oval" cx="356.45" cy="41.24" r="1.32"></circle>
            <circle id="Oval" cx="357.21" cy="37.08" r="1.3"></circle>
            <path d="M358.36,34.3 C357.654382,34.2999785 357.081867,33.728923 357.080043,33.0233073 C357.07822,32.3176917 357.647777,31.7436852 358.353385,31.7400173 C359.058994,31.7363494 359.634487,32.3044035 359.64,33.01 C359.640021,33.7185603 359.068539,34.2945073 358.36,34.3 Z" id="Shape"></path>
            <circle id="Oval" cx="359.85" cy="29.06" r="1.27"></circle>
            <circle id="Oval" cx="361.71" cy="25.27" r="1.25"></circle>
            <circle id="Oval" cx="363.92" cy="21.66" r="1.23"></circle>
            <circle id="Oval" cx="366.43" cy="18.26" r="1.21"></circle>
            <circle id="Oval" cx="369.25" cy="15.11" r="1.2"></circle>
            <circle id="Oval" cx="372.34" cy="12.22" r="1.18"></circle>
            <circle id="Oval" cx="375.68" cy="9.62" r="1.16"></circle>
            <circle id="Oval" cx="379.24" cy="7.34" r="1.15"></circle>
            <path d="M382.99,6.53 C382.360395,6.53 381.85,6.01960461 381.85,5.39 C381.85,4.76039539 382.360395,4.25 382.99,4.25 C383.619605,4.25 384.13,4.76039539 384.13,5.39 C384.13,6.01960461 383.619605,6.53 382.99,6.53 L382.99,6.53 Z" id="Shape"></path>
            <ellipse id="Oval" cx="386.9" cy="3.8" rx="1.12" ry="1.13"></ellipse>
            <circle id="Oval" cx="390.95" cy="2.56" r="1.13"></circle>
            <circle id="Oval" cx="395.09" cy="1.71" r="1.13"></circle>
            <circle id="Oval" cx="399.29" cy="1.23" r="1.13"></circle>
            <circle id="Oval" cx="403.52" cy="1.14" r="1.14"></circle>
            <path d="M407.76,2.56 C407.293962,2.55998238 406.874012,2.27869954 406.696615,1.84774503 C406.519219,1.41679052 406.619455,0.921380345 406.950429,0.593284017 C407.281404,0.265187688 407.77767,0.169282256 408.207059,0.3504355 C408.636448,0.531588745 408.914053,0.953979819 408.91,1.42 C408.910012,1.72408741 408.788533,2.0155767 408.572574,2.22965797 C408.356615,2.44373923 408.064076,2.56266743 407.76,2.56 L407.76,2.56 Z" id="Shape"></path>
            <circle id="Oval" cx="411.91" cy="2.09" r="1.16"></circle>
            <path d="M416.01,4.31 C415.531845,4.3140523 415.098515,4.02913804 414.912718,3.5885386 C414.726922,3.14793915 414.825394,2.6387687 415.162071,2.29921447 C415.498748,1.95966025 416.007062,1.85685803 416.449226,2.03889815 C416.891391,2.22093828 417.179983,2.65182824 417.18,3.13 C417.180023,3.77781065 416.657787,4.30451008 416.01,4.31 Z" id="Shape"></path>
            <circle id="Oval" cx="419.99" cy="4.55" r="1.2"></circle>
            <circle id="Oval" cx="423.83" cy="6.32" r="1.23"></circle>
            <circle id="Oval" cx="427.49" cy="8.44" r="1.25"></circle>
            <circle id="Oval" cx="430.94" cy="10.88" r="1.28"></circle>
            <circle id="Oval" cx="434.16" cy="13.62" r="1.3"></circle>
            <circle id="Oval" cx="437.11" cy="16.64" r="1.32"></circle>
            <circle id="Oval" cx="439.79" cy="19.92" r="1.34"></circle>
            <circle id="Oval" cx="442.15" cy="23.43" r="1.36"></circle>
            <path d="M444.19,28.51 C443.626474,28.513714 443.117305,28.1744104 442.903791,27.6528866 C442.690276,27.1313628 442.815319,26.5324101 443.21966,26.1398749 C443.624,25.7473396 444.226394,25.640095 444.741364,25.8689648 C445.256334,26.0978346 445.580406,26.6168313 445.56,27.18 C445.533234,27.9186985 444.929167,28.5051284 444.19,28.51 Z" id="Shape"></path>
            <circle id="Oval" cx="445.87" cy="31.01" r="1.39"></circle>
            <path d="M447.19,36.42 C446.42365,36.4144865 445.806347,35.7897422 445.810016,35.0233813 C445.813685,34.2570204 446.436942,33.6382153 447.203309,33.6400399 C447.969677,33.6418645 448.58998,34.2636303 448.59,35.03 C448.59001,35.4003901 448.442192,35.755466 448.179349,36.0164309 C447.916507,36.2773959 447.560381,36.4226647 447.19,36.42 Z" id="Shape"></path>
            <circle id="Oval" cx="448.15" cy="39.15" r="1.39"></circle>
            <circle id="Oval" cx="448.71" cy="43.34" r="1.38"></circle>
            <path d="M434.23,74.65 C433.476002,74.644476 432.868199,74.0307072 432.870041,73.2766912 C432.871882,72.5226751 433.482675,71.9118822 434.236691,71.9100409 C434.990707,71.9081995 435.604476,72.5160019 435.61,73.27 C435.612687,73.636816 435.468158,73.989388 435.208773,74.2487731 C434.949388,74.5081581 434.596816,74.6526874 434.23,74.65 Z" id="Shape"></path>
            <circle id="Oval" cx="431.38" cy="76.45" r="1.43"></circle>
            <circle id="Oval" cx="428.2" cy="79.31" r="1.46"></circle>
            <path d="M424.76,83.27 C424.169485,83.27 423.637116,82.9142824 423.411136,82.3687178 C423.185156,81.8231532 423.310067,81.1951812 423.727624,80.7776241 C424.145181,80.360067 424.773153,80.2351556 425.318718,80.4611359 C425.864282,80.6871161 426.22,81.2194851 426.22,81.81 C426.22,82.6163357 425.566336,83.27 424.76,83.27 L424.76,83.27 Z" id="Shape"></path>
            <path d="M421.04,85.39 C420.239187,85.39 419.59,84.7408129 419.59,83.94 C419.59,83.1391871 420.239187,82.49 421.04,82.49 C421.840813,82.49 422.49,83.1391871 422.49,83.94 C422.484549,84.7385441 421.838544,85.384549 421.04,85.39 L421.04,85.39 Z" id="Shape"></path>
            <circle id="Oval" cx="417.13" cy="85.67" r="1.45"></circle>
            <circle id="Oval" cx="413.07" cy="86.98" r="1.46"></circle>
            <circle id="Oval" cx="408.89" cy="87.85" r="1.48"></circle>
            <circle id="Oval" cx="404.64" cy="88.29" r="1.51"></circle>
            <circle id="Oval" cx="400.37" cy="88.28" r="1.54"></circle>
            <circle id="Oval" cx="396.12" cy="87.83" r="1.57"></circle>
            <path d="M391.95,88.54 C391.301966,88.5440503 390.715486,88.1568013 390.464682,87.5592543 C390.213879,86.9617074 390.348288,86.2718851 390.805088,85.8122126 C391.261888,85.35254 391.950854,85.2138079 392.549961,85.4608602 C393.149069,85.7079124 393.539987,86.2919531 393.54,86.94 C393.540017,87.819765 392.829748,88.5345015 391.95,88.54 Z" id="Shape"></path>
            <circle id="Oval" cx="387.89" cy="85.61" r="1.62"></circle>
            <circle id="Oval" cx="383.99" cy="83.87" r="1.61"></circle>
            <circle id="Oval" cx="380.3" cy="81.72" r="1.6"></circle>
            <circle id="Oval" cx="376.85" cy="79.2" r="1.56"></circle>
            <circle id="Oval" cx="373.68" cy="76.34" r="1.51"></circle>
            <circle id="Oval" cx="370.83" cy="73.16" r="1.43"></circle>
            <circle id="Oval" cx="368.32" cy="69.7" r="1.35"></circle>
            <circle id="Oval" cx="366.19" cy="66" r="1.24"></circle>
            <circle id="Oval" cx="364.47" cy="62.1" r="1.14"></circle>
            <path d="M363.17,59.08 C362.741354,59.1004346 362.343412,58.8579712 362.165023,58.4676739 C361.986633,58.0773766 362.063702,57.6178044 362.359656,57.3070532 C362.655609,56.996302 363.110878,56.8969197 363.509408,57.0560696 C363.907938,57.2152194 364.169513,57.6008676 364.17,58.03 C364.170636,58.590921 363.730285,59.0532898 363.17,59.08 Z" id="Shape"></path>
            <path d="M362.29,54.82 C361.737715,54.82 361.29,54.3722847 361.29,53.82 C361.29,53.2677153 361.737715,52.82 362.29,52.82 C362.842285,52.82 363.29,53.2677153 363.29,53.82 C363.29,54.3722847 362.842285,54.82 362.29,54.82 Z" id="Shape"></path>
            <circle id="Oval" cx="361.85" cy="49.6" r="0.95"></circle>
            <path d="M361.85,46.29 C361.297715,46.29 360.85,45.8422847 360.85,45.29 C360.85,44.7377153 361.297715,44.29 361.85,44.29 C362.402285,44.29 362.85,44.7377153 362.85,45.29 C362.85,45.8422847 362.402285,46.29 361.85,46.29 Z" id="Shape"></path>
            <path d="M362.31,42.04 C361.901607,42.0604449 361.521911,41.8301906 361.351255,41.4586004 C361.180599,41.0870101 361.253369,40.6489568 361.535001,40.3525013 C361.816634,40.0560458 362.250382,39.9609219 362.63023,40.1123104 C363.010078,40.2636989 363.259489,40.6310959 363.26,41.04 C363.260667,41.5733335 362.842667,42.0133337 362.31,42.04 Z" id="Shape"></path>
            <circle id="Oval" cx="363.2" cy="36.91" r="0.96"></circle>
            <path d="M364.52,33.82 C363.967715,33.82 363.52,33.3722847 363.52,32.82 C363.52,32.2677153 363.967715,31.82 364.52,31.82 C365.072285,31.82 365.52,32.2677153 365.52,32.82 C365.52,33.3722847 365.072285,33.82 364.52,33.82 Z" id="Shape"></path>
            <circle id="Oval" cx="366.27" cy="28.96" r="0.97"></circle>
            <circle id="Oval" cx="368.42" cy="25.27" r="0.98"></circle>
            <circle id="Oval" cx="370.94" cy="21.82" r="0.98"></circle>
            <path d="M373.76,19.64 C373.207715,19.64 372.76,19.1922847 372.76,18.64 C372.76,18.0877153 373.207715,17.64 373.76,17.64 C374.312285,17.64 374.76,18.0877153 374.76,18.64 C374.76,19.1922847 374.312285,19.64 373.76,19.64 Z" id="Shape"></path>
            <circle id="Oval" cx="376.97" cy="15.79" r="0.99"></circle>
            <circle id="Oval" cx="380.43" cy="13.29" r="1"></circle>
            <circle id="Oval" cx="384.14" cy="11.16" r="1"></circle>
            <circle id="Oval" cx="388.04" cy="9.43" r="1.01"></circle>
            <ellipse id="Oval" cx="392.1" cy="8.13" rx="1.02" ry="1.01"></ellipse>
            <circle id="Oval" cx="396.29" cy="7.25" r="1.03"></circle>
            <path d="M400.53,7.85 C399.977715,7.85 399.53,7.40228475 399.53,6.85 C399.53,6.29771525 399.977715,5.85 400.53,5.85 C401.082285,5.85 401.53,6.29771525 401.53,6.85 C401.53,7.40228475 401.082285,7.85 400.53,7.85 Z" id="Shape"></path>
            <path d="M404.76,7.87 C404.331354,7.89043461 403.933412,7.64797122 403.755023,7.2576739 C403.576633,6.86737658 403.653702,6.40780441 403.949656,6.09705319 C404.245609,5.78630197 404.700878,5.68691973 405.099408,5.84606957 C405.497938,6.00521941 405.759513,6.39086764 405.76,6.82 C405.755622,7.37890564 405.318028,7.83838001 404.76,7.87 Z" id="Shape"></path>
            <ellipse id="Oval" cx="409.05" cy="7.27" rx="1.07" ry="1.06"></ellipse>
            <circle id="Oval" cx="413.22" cy="8.16" r="1.08"></circle>
            <circle id="Oval" cx="417.28" cy="9.49" r="1.09"></circle>
            <circle id="Oval" cx="421.18" cy="11.23" r="1.11"></circle>
            <path d="M424.87,14.5 C424.252773,14.4944888 423.756354,13.9906337 423.76002,13.3733928 C423.763686,12.7561519 424.266055,12.2582288 424.883304,12.2600495 C425.500553,12.2618702 425.999975,12.7627483 426,13.38 C426.000012,13.6787832 425.880641,13.9651856 425.668432,14.1755162 C425.456223,14.3858468 425.168771,14.5026677 424.87,14.5 Z" id="Shape"></path>
            <circle id="Oval" cx="428.32" cy="15.9" r="1.14"></circle>
            <circle id="Oval" cx="431.49" cy="18.76" r="1.17"></circle>
            <path d="M434.35,23.18 C433.859711,23.1840521 433.415441,22.8918281 433.225001,22.440018 C433.034562,21.9882079 433.135601,21.4661337 433.480858,21.1179997 C433.826115,20.7698656 434.347333,20.664497 434.800708,20.851181 C435.254082,21.0378649 435.549983,21.4796943 435.55,21.97 C435.550023,22.6343787 435.014356,23.1745093 434.35,23.18 Z" id="Shape"></path>
            <circle id="Oval" cx="436.85" cy="25.4" r="1.25"></circle>
            <circle id="Oval" cx="438.98" cy="29.1" r="1.28"></circle>
            <circle id="Oval" cx="440.7" cy="33.01" r="1.28"></circle>
            <circle id="Oval" cx="442.01" cy="37.07" r="1.25"></circle>
            <circle id="Oval" cx="442.89" cy="41.25" r="1.2"></circle>
            <circle id="Oval" cx="443.33" cy="45.5" r="0.51"></circle>
            <circle id="Oval" cx="443.32" cy="49.77" r="0.56"></circle>
            <circle id="Oval" cx="442.87" cy="54.01" r="0.66"></circle>
            <circle id="Oval" cx="441.98" cy="58.19" r="0.81"></circle>
            <path d="M440.64,63.18 C440.087715,63.18 439.64,62.7322847 439.64,62.18 C439.64,61.6277153 440.087715,61.18 440.64,61.18 C441.192285,61.18 441.64,61.6277153 441.64,62.18 C441.64,62.7322847 441.192285,63.18 440.64,63.18 Z" id="Shape"></path>
            <circle id="Oval" cx="438.9" cy="66.15" r="1.14"></circle>
            <circle id="Oval" cx="436.75" cy="69.84" r="1.28"></circle>
            <circle id="Oval" cx="407.6" cy="82.68" r="1.37"></circle>
            <circle id="Oval" cx="403.37" cy="83" r="1.26"></circle>
            <path d="M399.13,83.88 C398.544578,83.88 398.07,83.4054218 398.07,82.82 C398.07,82.2345782 398.544578,81.76 399.13,81.76 C399.715422,81.76 400.19,82.2345782 400.19,82.82 C400.19,83.4054218 399.715422,83.88 399.13,83.88 L399.13,83.88 Z" id="Shape"></path>
            <circle id="Oval" cx="394.95" cy="82.13" r="0.89"></circle>
            <circle id="Oval" cx="390.88" cy="80.93" r="0.84"></circle>
            <path d="M387,80.7 C386.20471,80.7 385.56,80.05529 385.56,79.26 C385.56,78.46471 386.20471,77.82 387,77.82 C387.79529,77.82 388.44,78.46471 388.44,79.26 C388.434549,80.0530214 387.793021,80.6945495 387,80.7 L387,80.7 Z" id="Shape"></path>
            <circle id="Oval" cx="383.33" cy="77.12" r="1.53"></circle>
            <circle id="Oval" cx="379.95" cy="74.56" r="1.59"></circle>
            <path d="M376.91,73.23 C376.015299,73.23 375.29,72.5047013 375.29,71.61 C375.29,70.7152987 376.015299,69.99 376.91,69.99 C377.804701,69.99 378.53,70.7152987 378.53,71.61 C378.53,72.5047013 377.804701,73.23 376.91,73.23 L376.91,73.23 Z" id="Shape"></path>
            <path d="M374.24,69.95 C373.339776,69.95 372.61,69.2202241 372.61,68.32 C372.61,67.4197759 373.339776,66.69 374.24,66.69 C375.140224,66.69 375.87,67.4197759 375.87,68.32 C375.87,69.2202241 375.140224,69.95 374.24,69.95 Z" id="Shape"></path>
            <circle id="Oval" cx="371.97" cy="64.73" r="1.62"></circle>
            <path d="M370.18,62.5 C369.526224,62.5121843 368.930015,62.1277398 368.671337,61.5271917 C368.41266,60.9266435 368.542901,60.2292915 369.000903,59.7625938 C369.458904,59.2958962 370.153683,59.1525631 370.75899,59.3999 C371.364297,59.647237 371.759886,60.2361101 371.76,60.89 C371.760152,61.7675933 371.057441,62.4836473 370.18,62.5 Z" id="Shape"></path>
            <circle id="Oval" cx="368.85" cy="56.86" r="1.6"></circle>
            <circle id="Oval" cx="368.02" cy="52.71" r="1.56"></circle>
            <circle id="Oval" cx="367.69" cy="48.48" r="1.45"></circle>
            <circle id="Oval" cx="367.88" cy="44.24" r="1.33"></circle>
            <path d="M368.58,41.26 C367.917258,41.26 367.38,40.7227417 367.38,40.06 C367.38,39.3972583 367.917258,38.86 368.58,38.86 C369.242742,38.86 369.78,39.3972583 369.78,40.06 C369.774564,40.7204768 369.240477,41.2545637 368.58,41.26 Z" id="Shape"></path>
            <circle id="Oval" cx="369.77" cy="35.99" r="1.05"></circle>
            <circle id="Oval" cx="371.45" cy="32.1" r="0.95"></circle>
            <path d="M373.59,29.4 C373.15451,29.2816505 372.85225,28.8862851 372.85225,28.435 C372.85225,27.9837149 373.15451,27.5883495 373.59,27.47 C373.996522,27.3595228 374.428685,27.5156586 374.670722,27.8604537 C374.912759,28.2052487 374.912759,28.6647513 374.670722,29.0095463 C374.428685,29.3543414 373.996522,29.5104772 373.59,29.4 Z" id="Shape"></path>
            <circle id="Oval" cx="376.14" cy="25.06" r="1.22"></circle>
            <path d="M379.09,23.7 C378.404697,23.7081107 377.78235,23.3015376 377.514457,22.6707134 C377.246564,22.0398893 377.386175,21.3097343 377.867898,20.8222421 C378.349621,20.3347498 379.078062,20.186457 379.712031,20.4468216 C380.345999,20.7071862 380.759952,21.3246491 380.76,22.01 C380.760065,22.9356062 380.015541,23.6890461 379.09,23.7 L379.09,23.7 Z" id="Shape"></path>
            <circle id="Oval" cx="382.38" cy="19.34" r="1.91"></circle>
            <circle id="Oval" cx="385.97" cy="17.08" r="1.91"></circle>
            <circle id="Oval" cx="389.81" cy="15.28" r="1.86"></circle>
            <circle id="Oval" cx="393.84" cy="13.96" r="1.76"></circle>
            <circle id="Oval" cx="398" cy="13.13" r="1.63"></circle>
            <circle id="Oval" cx="402.22" cy="12.8" r="1.48"></circle>
            <path d="M406.46,14.31 C405.919502,14.3221948 405.425405,14.0059968 405.210061,13.5101001 C404.994716,13.0142035 405.100981,12.4372969 405.478882,12.0506744 C405.856784,11.6640519 406.431116,11.5446555 406.931796,11.748632 C407.432476,11.9526086 407.759862,12.4393646 407.76,12.98 C407.754941,13.7008337 407.180531,14.2884998 406.46,14.31 L406.46,14.31 Z" id="Shape"></path>
            <circle id="Oval" cx="410.64" cy="13.68" r="1.2"></circle>
            <path d="M414.71,15.96 C414.270657,15.9722087 413.867736,15.7169567 413.691079,15.3145089 C413.514423,14.9120612 413.59927,14.4427007 413.905646,14.1275721 C414.212021,13.8124434 414.678805,13.7144106 415.086069,13.8796629 C415.493332,14.0449152 415.75983,14.4404869 415.76,14.88 C415.755045,15.4628298 415.292459,15.938632 414.71,15.96 L414.71,15.96 Z" id="Shape"></path>
            <path d="M418.6,17.57 C418.047715,17.57 417.6,17.1222847 417.6,16.57 C417.6,16.0177153 418.047715,15.57 418.6,15.57 C419.152285,15.57 419.6,16.0177153 419.6,16.57 C419.6,17.1222847 419.152285,17.57 418.6,17.57 Z" id="Shape"></path>
            <circle id="Oval" cx="422.26" cy="18.69" r="1.03"></circle>
            <path d="M425.65,22.3 C425.097715,22.3 424.65,21.8522847 424.65,21.3 C424.65,20.7477153 425.097715,20.3 425.65,20.3 C426.202285,20.3 426.65,20.7477153 426.65,21.3 C426.65,21.8522847 426.202285,22.3 425.65,22.3 Z" id="Shape"></path>
            <circle id="Oval" cx="428.69" cy="24.2" r="1.08"></circle>
            <path d="M431.37,28.6 C430.920159,28.6040528 430.512354,28.3361947 430.337392,27.9217535 C430.162429,27.5073123 430.254912,27.0282506 430.571568,26.708716 C430.888224,26.3891815 431.366429,26.2923673 431.782437,26.4635718 C432.198444,26.6347763 432.469982,27.0401408 432.47,27.49 C432.470025,28.099152 431.979127,28.5945121 431.37,28.6 Z" id="Shape"></path>
            <ellipse id="Oval" cx="433.62" cy="31.08" rx="1.13" ry="1.14"></ellipse>
            <path d="M435.42,36.06 C434.953962,36.0599824 434.534012,35.7786995 434.356615,35.347745 C434.179219,34.9167905 434.279455,34.4213803 434.610429,34.093284 C434.941404,33.7651877 435.43767,33.6692823 435.867059,33.8504355 C436.296448,34.0315887 436.574053,34.4539798 436.57,34.92 C436.564511,35.5512188 436.051243,36.0600239 435.42,36.06 L435.42,36.06 Z" id="Shape"></path>
            <path d="M436.76,40.08 C436.297118,40.0840429 435.877746,39.8077837 435.698736,39.3808978 C435.519726,38.9540119 435.616622,38.4612613 435.943942,38.1339417 C436.271261,37.8066222 436.764012,37.709726 437.190898,37.888736 C437.617784,38.0677459 437.894043,38.487118 437.89,38.95 C437.884569,39.5718183 437.381818,40.074569 436.76,40.08 L436.76,40.08 Z" id="Shape"></path>
            <circle id="Oval" cx="437.57" cy="43.11" r="1.07"></circle>
            <path d="M437.9,48.18 C437.436081,48.18 437.06,47.8039192 437.06,47.34 C437.06,46.8760808 437.436081,46.5 437.9,46.5 C438.363919,46.5 438.74,46.8760808 438.74,47.34 C438.74,47.8039192 438.363919,48.18 437.9,48.18 L437.9,48.18 Z" id="Shape"></path>
            <path d="M437.76,52.29 C437.362355,52.29 437.04,51.967645 437.04,51.57 C437.04,51.172355 437.362355,50.85 437.76,50.85 C438.157645,50.85 438.48,51.172355 438.48,51.57 C438.48,51.967645 438.157645,52.29 437.76,52.29 L437.76,52.29 Z" id="Shape"></path>
            <path d="M437.02,56.52 C436.594741,56.52 436.25,56.1752593 436.25,55.75 C436.25,55.3247407 436.594741,54.98 437.02,54.98 C437.445259,54.98 437.79,55.3247407 437.79,55.75 C437.79,56.1752593 437.445259,56.52 437.02,56.52 Z" id="Shape"></path>
            <path d="M435.83,60.72 C435.327421,60.72 434.92,60.3125791 434.92,59.81 C434.92,59.3074209 435.327421,58.9 435.83,58.9 C436.332579,58.9 436.74,59.3074209 436.74,59.81 C436.74,60.3125791 436.332579,60.72 435.83,60.72 L435.83,60.72 Z" id="Shape"></path>
            <path d="M434.14,64.79 C433.551695,64.7844756 433.078211,64.3050257 433.080052,63.7166981 C433.081894,63.1283704 433.55837,62.6518939 434.146698,62.6500524 C434.735026,62.6482109 435.214476,63.1216954 435.22,63.71 C435.22,64.3064675 434.736468,64.79 434.14,64.79 Z" id="Shape"></path>
            <circle id="Oval" cx="432" cy="67.37" r="1.19"></circle>
            <circle id="Oval" cx="429.44" cy="70.75" r="1.25"></circle>
            <path d="M426.5,75.06 C425.804121,75.06 425.24,74.4958788 425.24,73.8 C425.24,73.1041212 425.804121,72.54 426.5,72.54 C427.195879,72.54 427.76,73.1041212 427.76,73.8 C427.76,74.4958788 427.195879,75.06 426.5,75.06 Z" id="Shape"></path>
            <circle id="Oval" cx="423.2" cy="76.47" r="1.27"></circle>
            <circle id="Oval" cx="419.61" cy="78.73" r="1.31"></circle>
            <circle id="Oval" cx="415.77" cy="80.53" r="1.37"></circle>
            <circle id="Oval" cx="411.75" cy="81.85" r="1.4"></circle>
            <path d="M372.61,51.05 C372.894398,50.7598558 373.326072,50.6706195 373.702202,50.8242185 C374.078331,50.9778174 374.324143,51.3437169 374.324143,51.75 C374.324143,52.1562831 374.078331,52.5221826 373.702202,52.6757815 C373.326072,52.8293805 372.894398,52.7401442 372.61,52.45 C372.228857,52.0611565 372.228857,51.4388435 372.61,51.05 Z" id="Shape"></path>
            <path d="M372.43,47.95 C372.826925,47.5783876 373.448037,47.5920227 373.828271,47.9806959 C374.208506,48.369369 374.208506,48.990631 373.828271,49.3793041 C373.448037,49.7679773 372.826925,49.7816124 372.43,49.41 C372.22805,49.2209283 372.113447,48.9566443 372.113447,48.68 C372.113447,48.4033557 372.22805,48.1390717 372.43,47.95 L372.43,47.95 Z" id="Shape"></path>
            <path d="M372.57,44.86 C372.982897,44.4520522 373.647103,44.4520522 374.06,44.86 C374.27186,45.0496973 374.392936,45.3206237 374.392936,45.605 C374.392936,45.8893763 374.27186,46.1603027 374.06,46.35 C373.648548,46.7614521 372.981452,46.7614521 372.57,46.35 C372.158548,45.9385479 372.158548,45.2714521 372.57,44.86 Z" id="Shape"></path>
            <circle id="Oval" transform="translate(373.813062, 42.597770) rotate(-45.050000) translate(-373.813062, -42.597770) " cx="373.813062" cy="42.59777" r="1.05"></circle>
            <circle id="Oval" transform="translate(374.594698, 39.605536) rotate(-44.980000) translate(-374.594698, -39.605536) " cx="374.594698" cy="39.6055361" r="1.04"></circle>
            <path d="M374.97,36 C375.379481,35.5932215 376.040519,35.5932215 376.45,36 C376.81315,36.3995362 376.793576,37.0151983 376.405782,37.3908603 C376.017987,37.7665224 375.402013,37.7665224 375.014218,37.3908603 C374.626424,37.0151983 374.60685,36.3995362 374.97,36 L374.97,36 Z" id="Shape"></path>
            <path d="M376.37,33.26 C376.770798,32.90113 377.38369,32.9236687 377.757047,33.3110077 C378.130404,33.6983468 378.130404,34.3116532 377.757047,34.6989923 C377.38369,35.0863313 376.770798,35.10887 376.37,34.75 C376.17153,34.5528841 376.059916,34.2847234 376.059916,34.005 C376.059916,33.7252766 376.17153,33.4571159 376.37,33.26 L376.37,33.26 Z" id="Shape"></path>
            <circle id="Oval" transform="translate(378.780503, 31.405578) rotate(-45.150000) translate(-378.780503, -31.405578) " cx="378.780503" cy="31.4055775" r="1.07"></circle>
            <path d="M379.97,28.27 C380.392152,27.8493112 381.075288,27.8501018 381.496465,28.2717667 C381.917643,28.6934317 381.917643,29.3765683 381.496465,29.7982333 C381.075288,30.2198982 380.392152,30.2206888 379.97,29.8 C379.76415,29.5986933 379.648114,29.3229215 379.648114,29.035 C379.648114,28.7470785 379.76415,28.4713067 379.97,28.27 L379.97,28.27 Z" id="Shape"></path>
            <path d="M382.13,26.08 C382.563515,25.6466086 383.26627,25.6466752 383.699703,26.0801486 C384.133135,26.5136221 384.133135,27.2163779 383.699703,27.6498514 C383.26627,28.0833248 382.563515,28.0833914 382.13,27.65 C381.921766,27.4418256 381.804777,27.1594449 381.804777,26.865 C381.804777,26.5705551 381.921766,26.2881744 382.13,26.08 L382.13,26.08 Z" id="Shape"></path>
            <circle id="Oval" transform="translate(385.282907, 24.913049) rotate(-45.090000) translate(-385.282907, -24.913049) " cx="385.282907" cy="24.9130491" r="1.13"></circle>
            <circle id="Oval" transform="translate(387.891356, 23.273634) rotate(-45.050000) translate(-387.891356, -23.273634) " cx="387.891356" cy="23.2736336" r="1.15"></circle>
            <path d="M389.76,21.05 C390.214386,20.600868 390.946402,20.603706 391.397292,21.0563477 C391.848183,21.5089894 391.848183,22.2410106 391.397292,22.6936523 C390.946402,23.146294 390.214386,23.149132 389.76,22.7 C389.306165,22.2436212 389.306165,21.5063788 389.76,21.05 L389.76,21.05 Z" id="Shape"></path>
            <path d="M392.68,19.96 C393.011703,19.6280993 393.510694,19.5287282 393.944241,19.7082338 C394.377788,19.8877393 394.660488,20.310761 394.660488,20.78 C394.660488,21.249239 394.377788,21.6722607 393.944241,21.8517662 C393.510694,22.0312718 393.011703,21.9319007 392.68,21.6 C392.232754,21.1448099 392.232754,20.4151901 392.68,19.96 L392.68,19.96 Z" id="Shape"></path>
            <path d="M395.66,19.18 C395.988189,18.8492454 396.483525,18.7492121 396.91435,18.9266837 C397.345175,19.1041553 397.626333,19.5240532 397.626333,19.99 C397.626333,20.4559468 397.345175,20.8758447 396.91435,21.0533163 C396.483525,21.2307879 395.988189,21.1307546 395.66,20.8 C395.215111,20.3516325 395.215111,19.6283675 395.66,19.18 Z" id="Shape"></path>
            <path d="M398.76,18.73 C399.19827,18.2950883 399.905848,18.2969027 400.341882,18.7340565 C400.777916,19.1712102 400.777916,19.8787898 400.341882,20.3159435 C399.905848,20.7530973 399.19827,20.7549117 398.76,20.32 C398.548093,20.109717 398.428907,19.8235356 398.428907,19.525 C398.428907,19.2264644 398.548093,18.940283 398.76,18.73 L398.76,18.73 Z" id="Shape"></path>
            <circle id="Oval" transform="translate(402.563930, 19.351338) rotate(-45.020000) translate(-402.563930, -19.351338) " cx="402.56393" cy="19.3513376" r="1.09"></circle>
            <circle id="Oval" transform="translate(405.664838, 19.551515) rotate(-44.960000) translate(-405.664838, -19.551515) " cx="405.664838" cy="19.5515148" r="1.03"></circle>
            <path d="M408,19.33 C408.2809,19.0312438 408.715727,18.9342613 409.096957,19.0853379 C409.478186,19.2364145 409.728543,19.6049265 409.728543,20.015 C409.728543,20.4250735 409.478186,20.7935855 409.096957,20.9446621 C408.715727,21.0957387 408.2809,20.9987562 408,20.7 C407.638057,20.31505 407.638057,19.71495 408,19.33 L408,19.33 Z" id="Shape"></path>
            <path d="M411.03,20.18 C411.195621,20.0101771 411.422787,19.9144103 411.66,19.9144103 C411.897213,19.9144103 412.124379,20.0101771 412.29,20.18 C412.516864,20.4050773 412.606417,20.7340877 412.524926,21.043096 C412.443435,21.3521044 412.203281,21.5941651 411.894926,21.6780961 C411.586572,21.7620271 411.256864,21.6750774 411.03,21.45 C410.859593,21.282653 410.763598,21.0538377 410.763598,20.815 C410.763598,20.5761623 410.859593,20.347347 411.03,20.18 L411.03,20.18 Z" id="Shape"></path>
            <circle id="Oval" transform="translate(414.512037, 21.918751) rotate(-44.980000) translate(-414.512037, -21.918751) " cx="414.512037" cy="21.918751" r="0.82"></circle>
            <circle id="Oval" transform="translate(417.272504, 23.354430) rotate(-44.970000) translate(-417.272504, -23.354430) " cx="417.272504" cy="23.35443" r="0.76"></circle>
            <path d="M419.34,24.52 C419.614815,24.2507375 420.055428,24.2537351 420.326554,24.5267118 C420.597679,24.7996885 420.597679,25.2403115 420.326554,25.5132882 C420.055428,25.7862649 419.614815,25.7892625 419.34,25.52 C419.205623,25.3883377 419.129898,25.2081281 419.129898,25.02 C419.129898,24.8318719 419.205623,24.6516623 419.34,24.52 L419.34,24.52 Z" id="Shape"></path>
            <path d="M421.76,26.47 C422.030859,26.2203394 422.451263,26.2317498 422.708181,26.4957351 C422.965098,26.7597204 422.965098,27.1802796 422.708181,27.4442649 C422.451263,27.7082502 422.030859,27.7196606 421.76,27.47 C421.623036,27.3397469 421.5455,27.1590108 421.5455,26.97 C421.5455,26.7809892 421.623036,26.6002531 421.76,26.47 L421.76,26.47 Z" id="Shape"></path>
            <path d="M423.9,28.64 C424.172879,28.3804919 424.603431,28.3877001 424.86747,28.6561972 C425.13151,28.9246942 425.13151,29.3553058 424.86747,29.6238028 C424.603431,29.8922999 424.172879,29.8995081 423.9,29.64 C423.760325,29.5112564 423.680869,29.3299579 423.680869,29.14 C423.680869,28.9500421 423.760325,28.7687436 423.9,28.64 L423.9,28.64 Z" id="Shape"></path>
            <circle id="Oval" transform="translate(426.313328, 31.519918) rotate(-45.030000) translate(-426.313328, -31.519918) " cx="426.313328" cy="31.5199175" r="0.69"></circle>
            <circle id="Oval" transform="translate(428.007717, 34.119756) rotate(-45.140000) translate(-428.007717, -34.119756) " cx="428.007717" cy="34.1197565" r="0.69"></circle>
            <circle id="Oval" transform="translate(429.398527, 36.872828) rotate(-45.110000) translate(-429.398527, -36.872828) " cx="429.398527" cy="36.8728282" r="0.7"></circle>
            <path d="M429.98,39.18 C430.111662,39.0456228 430.291872,38.9698979 430.48,38.9698979 C430.668128,38.9698979 430.848338,39.0456228 430.98,39.18 C431.254556,39.4567978 431.254556,39.9032022 430.98,40.18 C430.848338,40.3143772 430.668128,40.3901021 430.48,40.3901021 C430.291872,40.3901021 430.111662,40.3143772 429.98,40.18 C429.843036,40.0497469 429.7655,39.8690108 429.7655,39.68 C429.7655,39.4909892 429.843036,39.3102531 429.98,39.18 L429.98,39.18 Z" id="Shape"></path>
            <path d="M430.76,42.18 C430.891662,42.0456228 431.071872,41.9698979 431.26,41.9698979 C431.448128,41.9698979 431.628338,42.0456228 431.76,42.18 C432.036142,42.4561424 432.036142,42.9038576 431.76,43.18 C431.483858,43.4561424 431.036142,43.4561424 430.76,43.18 C430.625623,43.0483377 430.549898,42.8681281 430.549898,42.68 C430.549898,42.4918719 430.625623,42.3116623 430.76,42.18 L430.76,42.18 Z" id="Shape"></path>
            <path d="M431.24,45.18 C431.442601,44.9757442 431.748437,44.9139395 432.014454,45.0234944 C432.280472,45.1330494 432.454083,45.3923062 432.454083,45.68 C432.454083,45.9676938 432.280472,46.2269506 432.014454,46.3365056 C431.748437,46.4460605 431.442601,46.3842558 431.24,46.18 C430.965444,45.9032022 430.965444,45.4567978 431.24,45.18 L431.24,45.18 Z" id="Shape"></path>
            <path d="M431.39,48.29 C431.592601,48.0857442 431.898437,48.0239395 432.164454,48.1334944 C432.430472,48.2430494 432.604083,48.5023062 432.604083,48.79 C432.604083,49.0776938 432.430472,49.3369506 432.164454,49.4465056 C431.898437,49.5560605 431.592601,49.4942558 431.39,49.29 C431.120764,49.0110325 431.120764,48.5689675 431.39,48.29 L431.39,48.29 Z" id="Shape"></path>
            <circle id="Oval" transform="translate(431.709922, 51.839838) rotate(-45.000000) translate(-431.709922, -51.839838) " cx="431.709922" cy="51.8398384" r="0.71"></circle>
            <circle id="Oval" transform="translate(431.224306, 54.871376) rotate(-44.920000) translate(-431.224306, -54.871376) " cx="431.224306" cy="54.8713756" r="0.72"></circle>
            <path d="M429.94,57.35 C430.143848,57.138784 430.455509,57.0724658 430.727691,57.1823875 C430.999873,57.2923093 431.178073,57.5564595 431.178073,57.85 C431.178073,58.1435405 430.999873,58.4076907 430.727691,58.5176125 C430.455509,58.6275342 430.143848,58.561216 429.94,58.35 C429.670764,58.0710325 429.670764,57.6289675 429.94,57.35 L429.94,57.35 Z" id="Shape"></path>
            <circle id="Oval" transform="translate(429.336681, 60.757728) rotate(-45.050000) translate(-429.336681, -60.757728) " cx="429.336681" cy="60.757728" r="0.73"></circle>
            <path d="M427.41,62.95 C427.615045,62.7318796 427.932479,62.6610566 428.210793,62.7713341 C428.489108,62.8816115 428.671883,63.1506338 428.671883,63.45 C428.671883,63.7493662 428.489108,64.0183885 428.210793,64.1286659 C427.932479,64.2389434 427.615045,64.1681204 427.41,63.95 C427.145845,63.6690002 427.145845,63.2309998 427.41,62.95 L427.41,62.95 Z" id="Shape"></path>
            <path d="M425.76,65.52 C426.042907,65.260703 426.477093,65.260703 426.76,65.52 C427.045857,65.8116326 427.045857,66.2783674 426.76,66.57 C426.472959,66.7216766 426.120576,66.6685492 425.891013,66.4389865 C425.661451,66.2094238 425.608323,65.8570406 425.76,65.57 L425.76,65.52 Z" id="Shape"></path>
            <path d="M423.76,67.9 C424.05551,67.6246411 424.51601,67.6327661 424.801622,67.9183782 C425.087234,68.2039903 425.095359,68.6644902 424.82,68.96 C424.524973,69.2470643 424.055027,69.2470643 423.76,68.96 C423.617052,68.8207122 423.53643,68.6295875 423.53643,68.43 C423.53643,68.2304125 423.617052,68.0392878 423.76,67.9 Z" id="Shape"></path>
            <path d="M421.59,70.07 C421.806821,69.8512366 422.134241,69.78497 422.419065,69.902205 C422.70389,70.01944 422.889792,70.2969919 422.889792,70.605 C422.889792,70.9130081 422.70389,71.19056 422.419065,71.307795 C422.134241,71.42503 421.806821,71.3587634 421.59,71.14 C421.296389,70.8437592 421.296389,70.3662408 421.59,70.07 L421.59,70.07 Z" id="Shape"></path>
            <path d="M419.2,71.99 C419.419214,71.7671699 419.751386,71.6989754 420.040662,71.8174135 C420.329938,71.9358515 420.518908,72.2174173 420.518908,72.53 C420.518908,72.8425827 420.329938,73.1241485 420.040662,73.2425865 C419.751386,73.3610246 419.419214,73.2928301 419.2,73.07 C418.905211,72.7703477 418.905211,72.2896523 419.2,71.99 L419.2,71.99 Z" id="Shape"></path>
            <path d="M416.61,73.65 C416.832734,73.4260178 417.168567,73.3584845 417.460568,73.4789576 C417.752569,73.5994308 417.943082,73.8841227 417.943082,74.2 C417.943082,74.5158773 417.752569,74.8005692 417.460568,74.9210424 C417.168567,75.0415155 416.832734,74.9739822 416.61,74.75 C416.462185,74.6051715 416.378888,74.4069409 416.378888,74.2 C416.378888,73.9930591 416.462185,73.7948285 416.61,73.65 L416.61,73.65 Z" id="Shape"></path>
            <path d="M413.86,75.03 C414.085128,74.801949 414.425717,74.7324875 414.72217,74.8541641 C415.018624,74.9758407 415.212205,75.2645473 415.212205,75.585 C415.212205,75.9054527 415.018624,76.1941593 414.72217,76.3158359 C414.425717,76.4375125 414.085128,76.368051 413.86,76.14 C413.556274,75.8323307 413.556274,75.3376693 413.86,75.03 L413.86,75.03 Z" id="Shape"></path>
            <path d="M410.98,76.12 C411.208646,75.8907999 411.552892,75.822 411.852069,75.9457111 C412.151247,76.0694223 412.34637,76.3612539 412.34637,76.685 C412.34637,77.0087461 412.151247,77.3005777 411.852069,77.4242889 C411.552892,77.548 411.208646,77.4792001 410.98,77.25 C410.8279,77.1013583 410.742155,76.8976703 410.742155,76.685 C410.742155,76.4723297 410.8279,76.2686417 410.98,76.12 L410.98,76.12 Z" id="Shape"></path>
            <path d="M408,76.9 C408.231042,76.6667291 408.580045,76.5960006 408.883676,76.7209156 C409.187307,76.8458306 409.3855,77.1416777 409.3855,77.47 C409.3855,77.7983223 409.187307,78.0941694 408.883676,78.2190844 C408.580045,78.3439994 408.231042,78.2732709 408,78.04 C407.687333,77.7243162 407.687333,77.2156838 408,76.9 L408,76.9 Z" id="Shape"></path>
            <path d="M404.95,77.37 C405.27028,77.0499102 405.789387,77.0500132 406.10954,77.3702299 C406.429693,77.6904467 406.429693,78.2095533 406.10954,78.5297701 C405.789387,78.8499868 405.27028,78.8500898 404.95,78.53 C404.634956,78.2075053 404.634956,77.6924947 404.95,77.37 L404.95,77.37 Z" id="Shape"></path>
            <path d="M401.87,77.51 C402.027614,77.3518382 402.241713,77.2629376 402.465,77.2629376 C402.688287,77.2629376 402.902386,77.3518382 403.06,77.51 C403.387202,77.8383405 403.386587,78.3696687 403.058626,78.6972509 C402.730664,79.0248332 402.199336,79.0248332 401.871374,78.6972509 C401.543413,78.3696687 401.542798,77.8383405 401.87,77.51 L401.87,77.51 Z" id="Shape"></path>
            <path d="M398.76,77.32 C399.101937,76.9858991 399.648063,76.9858991 399.99,77.32 C400.211505,77.5397183 400.298965,77.8609178 400.219436,78.1626056 C400.139906,78.4642935 399.90547,78.7006361 399.604436,78.7826056 C399.303402,78.8645751 398.981505,78.7797183 398.76,78.56 C398.419333,78.2168606 398.419333,77.6631394 398.76,77.32 L398.76,77.32 Z" id="Shape"></path>
            <circle id="Oval" transform="translate(396.348428, 77.444670) rotate(-44.980000) translate(-396.348428, -77.444670) " cx="396.348428" cy="77.4446704" r="0.9"></circle>
            <path d="M392.76,76 C393.120573,75.6443559 393.70078,75.647018 394.058075,76.0059559 C394.415369,76.3648938 394.415369,76.9451062 394.058075,77.3040441 C393.70078,77.662982 393.120573,77.6656441 392.76,77.31 C392.405629,76.9452296 392.405629,76.3647704 392.76,76 L392.76,76 Z" id="Shape"></path>
            <circle id="Oval" transform="translate(390.506238, 75.535259) rotate(-44.960000) translate(-390.506238, -75.535259) " cx="390.506238" cy="75.5352595" r="0.92"></circle>
            <path d="M387.15,73.5 C387.504569,73.149221 388.075431,73.149221 388.43,73.5 C388.600407,73.667347 388.696402,73.8961623 388.696402,74.135 C388.696402,74.3738377 388.600407,74.602653 388.43,74.77 C388.20135,74.99865 387.868085,75.0879481 387.555744,75.0042564 C387.243402,74.9205647 386.999435,74.676598 386.915744,74.3642563 C386.832052,74.0519146 386.92135,73.71865 387.15,73.49 L387.15,73.5 Z" id="Shape"></path>
            <path d="M384.61,71.84 C384.948537,71.5070967 385.491463,71.5070967 385.83,71.84 C386.164314,72.1763999 386.163187,72.7199488 385.827481,73.0549597 C385.491775,73.3899705 384.948225,73.3899705 384.612519,73.0549597 C384.276813,72.7199488 384.275686,72.1763999 384.61,71.84 L384.61,71.84 Z" id="Shape"></path>
            <path d="M382.57,70.26 C382.717227,70.142462 382.929263,70.1543131 383.062475,70.2875253 C383.195687,70.4207374 383.207538,70.632773 383.09,70.78 C383.001356,70.891035 382.85696,70.9415037 382.718448,70.9098635 C382.579937,70.8782232 382.471777,70.7700632 382.440137,70.6315515 C382.408496,70.4930399 382.458965,70.3486442 382.57,70.26 L382.57,70.26 Z" id="Shape"></path>
            <circle id="Oval" transform="translate(380.803690, 68.350783) rotate(-44.800000) translate(-380.803690, -68.350783) " cx="380.70369" cy="68.2507834" r="0.4"></circle>
            <circle id="Oval" transform="translate(378.770744, 65.952201) rotate(-44.880000) translate(-378.770744, -65.952201) " cx="378.740744" cy="65.9222007" r="0.47"></circle>
            <path d="M376.65,62.96 C376.87797,62.7428858 377.237514,62.7472698 377.460122,62.9698781 C377.68273,63.1924863 377.687114,63.5520301 377.47,63.78 C377.24203,63.9971142 376.882486,63.9927302 376.659878,63.7701219 C376.43727,63.5475137 376.432886,63.1879699 376.65,62.96 L376.65,62.96 Z" id="Shape"></path>
            <path d="M375.17,60.18 C375.444815,59.9107375 375.885428,59.9137351 376.156554,60.1867118 C376.427679,60.4596885 376.427679,60.9003115 376.156554,61.1732882 C375.885428,61.4462649 375.444815,61.4492625 375.17,61.18 C375.033036,61.0497469 374.9555,60.8690108 374.9555,60.68 C374.9555,60.4909892 375.033036,60.3102531 375.17,60.18 L375.17,60.18 Z" id="Shape"></path>
            <circle id="Oval" transform="translate(374.575325, 57.771747) rotate(-44.900000) translate(-374.575325, -57.771747) " cx="374.575325" cy="57.7717466" r="0.82"></circle>
            <circle id="Oval" transform="translate(373.783778, 54.798799) rotate(-45.040000) translate(-373.783778, -54.798799) " cx="373.783778" cy="54.7987989" r="0.92"></circle>
            <path d="M15.71,36.24 C15.6827288,36.9896468 15.9732541,37.71596 16.51,38.24 C17.0785718,38.7600458 17.8301893,39.0333613 18.6,39 L19.07,39 L19.07,41.28 L18.99,41.28 C17.6594238,41.4385745 16.3645076,40.7792727 15.71,39.61 L15.71,41.18 C15.71,45.9333333 13.2866667,48.31 8.44,48.31 L6.34,48.31 C4.70313386,48.3741597 3.12798054,47.6806496 2.07,46.43 C0.930986241,44.9596825 0.36264681,43.1267879 0.47,41.27 C0.445606771,39.062322 0.853259618,36.871188 1.67,34.82 L4.09,34.82 C3.3794178,36.8355798 3.0405925,38.9634027 3.09,41.1 C3.01645886,42.3900261 3.36771732,43.6686069 4.09,44.74 C4.76241074,45.6053778 5.81558279,46.087148 6.91,46.03 L8.34,46.03 C11.6066667,46.03 13.24,44.4833333 13.24,41.39 L13.24,19.18 L15.72,19.18 L15.71,36.24 Z" id="Shape"></path>
            <polygon id="Shape" points="18.48 39.03 24.05 39.03 24.05 41.31 18.48 41.31"></polygon>
            <path d="M23.47,39.03 L27.47,39.03 L27.47,27.18 L30.06,27.18 L30.06,36.26 C30.0326021,37.0077158 30.3190266,37.7328409 30.85,38.26 C31.4216408,38.7815898 32.1769487,39.0549393 32.95,39.02 L34.01,39.02 L34.01,41.3 L33.34,41.3 C32.0099191,41.4558 30.7164599,40.79724 30.06,39.63 L30.06,41.3 L23.47,41.3 L23.47,39.03 Z M28.88,43.46 C29.8866667,43.46 30.39,44.0066667 30.39,45.1 C30.39,46.1933333 29.8866667,46.7366667 28.88,46.73 C27.8733333,46.73 27.37,46.1866667 27.37,45.1 C27.37,44.0133333 27.8766667,43.4666667 28.89,43.46 L28.88,43.46 Z" id="Shape"></path>
            <polygon id="Shape" points="33.42 39.03 38.99 39.03 38.99 41.31 33.42 41.31"></polygon>
            <path d="M38.41,39.03 L42.98,39.03 C41.9399754,37.8061383 41.4006453,36.2345805 41.47,34.63 C41.369981,32.5848087 42.1615729,30.5967091 43.64,29.18 C45.2510043,27.7903714 47.3350985,27.0741878 49.46,27.18 L53.28,27.18 L53.28,39.03 L56.52,39.03 L56.52,41.31 L38.41,41.31 L38.41,39.03 Z M49.55,29.42 C48.0890197,29.3375115 46.6536308,29.8291322 45.55,30.79 C44.5420231,31.8010984 44.014356,33.1948676 44.1,34.62 C44.1,37.5533333 45.4333333,39.02 48.1,39.02 L50.76,39.02 L50.76,29.43 L49.55,29.42 Z M46.4,21.18 C47.4,21.18 47.91,21.73 47.91,22.82 C47.91,23.91 47.41,24.44 46.4,24.44 C45.39,24.44 44.87,23.9 44.87,22.82 C44.87,21.74 45.38,21.18 46.4,21.18 Z M50.86,21.18 C51.8733333,21.18 52.38,21.7266667 52.38,22.82 C52.38,23.9133333 51.8733333,24.4633333 50.86,24.47 C49.86,24.47 49.35,23.93 49.35,22.85 C49.35,21.77 49.85,21.18 50.86,21.18 Z" id="Shape"></path>
            <polygon id="Shape" points="55.95 39.03 61.52 39.03 61.52 41.31 55.95 41.31"></polygon>
            <path d="M60.94,39.03 L64.94,39.03 L64.94,27.18 L67.54,27.18 L67.54,36.26 C67.5113653,37.0079273 67.7979791,37.7335317 68.33,38.26 C68.9016408,38.7815898 69.6569487,39.0549393 70.43,39.02 L71.49,39.02 L71.49,41.3 L70.76,41.3 C69.4294238,41.4585745 68.1345076,40.7992727 67.48,39.63 L67.48,41.3 L60.9,41.3 L60.94,39.03 Z M63.76,21.18 C64.76,21.18 65.29,21.73 65.29,22.82 C65.29,23.91 64.76,24.47 63.76,24.47 C62.76,24.47 62.25,23.93 62.25,22.85 C62.25,21.77 62.76,21.18 63.76,21.18 Z M68.24,21.18 C69.24,21.18 69.75,21.73 69.75,22.82 C69.75,23.91 69.25,24.44 68.24,24.44 C67.23,24.44 66.72,23.9 66.72,22.82 C66.72,21.74 67.22,21.18 68.23,21.18 L68.24,21.18 Z" id="Shape"></path>
            <polygon id="Shape" points="70.88 39.03 76.45 39.03 76.45 41.31 70.88 41.31"></polygon>
            <path d="M75.87,41.31 L75.87,39.03 L80.19,39.03 L80.19,29.43 L82.67,29.43 L82.67,35.8 C82.6358217,36.6656514 82.9574151,37.5075757 83.56,38.13 C84.1620672,38.7408628 84.9928671,39.0710059 85.85,39.04 L87.66,39.04 L87.66,29.43 L90.14,29.43 L90.14,35.8 C90.1081603,36.6652659 90.4294152,37.5063039 91.03,38.13 C91.6327604,38.7398164 92.4630811,39.0697692 93.32,39.04 L95.13,39.04 L95.13,27.18 L97.61,27.18 L97.61,36.26 C97.5827288,37.0096468 97.8732541,37.73596 98.41,38.26 C98.9791477,38.7790947 99.7303588,39.0522624 100.5,39.02 L100.97,39.02 L100.97,41.3 L100.89,41.3 C99.5599191,41.4558 98.2664599,40.79724 97.61,39.63 L97.61,41.3 L93.41,41.3 C91.77,41.3 90.69,40.75 90.15,39.63 L90.15,41.3 L85.94,41.3 C84.3066667,41.3 83.22,40.7433333 82.68,39.63 L82.68,41.3 L75.87,41.31 Z" id="Shape"></path>
            <polygon id="Shape" points="100.38 39.03 105.95 39.03 105.95 41.31 100.38 41.31"></polygon>
            <path d="M105.37,41.31 L105.37,39.03 L109.13,39.03 C108.397868,37.7014981 108.051513,36.1948512 108.13,34.68 C108.048763,32.6334405 108.725275,30.6288281 110.03,29.05 C111.271011,27.5885839 113.114118,26.7776168 115.03,26.85 C116.8235,26.7780225 118.566089,27.4554947 119.84,28.72 C121.762197,30.9773593 122.228058,34.1335625 121.04,36.85 C120.677841,37.7153193 120.086649,38.4655459 119.33,39.02 L124.44,39.02 L124.44,41.3 L105.37,41.31 Z M111.76,39.03 L114.41,39.03 C115.695988,39.1039717 116.947406,38.5975328 117.82,37.65 C118.681179,36.5620066 119.11188,35.1951551 119.03,33.81 C119.101665,32.5603491 118.70201,31.3292691 117.91,30.36 C117.127459,29.5054992 116.006977,29.0409717 114.849382,29.0911342 C113.691788,29.1412966 112.61569,29.7010092 111.91,30.62 C111.073591,31.8019702 110.667692,33.2349694 110.76,34.68 C110.641574,36.198076 110.990531,37.7160377 111.76,39.03 Z" id="Shape"></path>
            <polygon id="Shape" points="123.84 39.03 129.41 39.03 129.41 41.31 123.84 41.31"></polygon>
            <path d="M128.83,39.03 L132.83,39.03 L132.83,19.18 L135.42,19.18 L135.42,36.28 C135.393828,37.0275051 135.680066,37.7521569 136.21,38.28 C136.782216,38.8006361 137.537117,39.0738382 138.31,39.04 L139.36,39.04 L139.36,41.32 L138.69,41.32 C137.359424,41.4785745 136.064508,40.8192727 135.41,39.65 L135.41,41.32 L128.83,41.32 L128.83,39.03 Z" id="Shape"></path>
            <polygon id="Shape" points="138.76 39.03 144.33 39.03 144.33 41.31 138.76 41.31"></polygon>
            <polygon id="Shape" points="143.76 39.03 147.76 39.03 147.76 19.18 150.35 19.18 150.35 41.31 143.76 41.31"></polygon>
            <path d="M178.48,39.18 C178.569282,40.9131463 177.826288,42.5848847 176.48,43.68 C174.813735,44.855385 172.794724,45.4236732 170.76,45.29 L167.3,45.29 C165.838576,45.375722 164.401999,44.8836941 163.3,43.92 C162.311608,42.8866779 161.800366,41.4871089 161.89,40.06 C161.897405,38.7104838 162.144582,37.3730226 162.62,36.11 L164.76,36.11 C164.48905,37.3420472 164.344966,38.5986 164.33,39.86 C164.284057,40.6985136 164.563466,41.5224132 165.11,42.16 C165.656935,42.7356979 166.426726,43.0458031 167.22,43.01 L170.76,43.01 C174.166667,43.01 175.87,41.7233333 175.87,39.15 L175.87,35.38 C175.87,29.9 178.406667,27.16 183.48,27.16 L187.01,27.16 L187.01,39.03 L190.66,39.03 L190.66,41.31 L184.42,41.31 L184.42,29.43 L183.66,29.43 C180.186667,29.43 178.453333,31.43 178.46,35.43 L178.48,39.18 Z M168.82,46.86 C169.82,46.86 170.34,47.4 170.34,48.5 C170.34,49.6 169.83,50.13 168.82,50.13 C167.81,50.13 167.31,49.59 167.31,48.5 C167.31,47.41 167.76,46.85 168.82,46.85 L168.82,46.86 Z M173.28,46.86 C174.28,46.86 174.8,47.4 174.8,48.5 C174.8,49.6 174.29,50.13 173.28,50.13 C172.27,50.13 171.76,49.58 171.76,48.49 C171.76,47.4 172.27,46.85 173.28,46.85 L173.28,46.86 Z" id="Shape"></path>
            <polygon id="Shape" points="190.1 39.03 195.67 39.03 195.67 41.31 190.1 41.31"></polygon>
            <path d="M195.09,39.03 L199.09,39.03 L199.09,27.18 L201.69,27.18 L201.69,41.31 L195.11,41.31 L195.09,39.03 Z M199.86,43.46 C200.866667,43.46 201.37,44.0066667 201.37,45.1 C201.37,46.1933333 200.866667,46.7366667 199.86,46.73 C198.86,46.73 198.35,46.19 198.35,45.1 C198.35,44.01 198.86,43.46 199.87,43.46 L199.86,43.46 Z" id="Shape"></path>
            <path d="M204.88,39.03 L214.6,39.03 C213.613333,33.4433333 211.55,29.9233333 208.41,28.47 L209.35,26.25 C213.35,27.81 215.936667,32.09 217.11,39.09 L217.11,41.31 L204.88,41.31 L204.88,39.03 Z" id="Shape"></path>
            <path d="M234.68,41.31 C232.87094,41.4706974 231.083555,40.8222486 229.798355,39.5389782 C228.513155,38.2557078 227.862021,36.4692996 228.02,34.66 C227.915888,32.596446 228.719682,30.5906129 230.22,29.17 C231.823823,27.781617 233.901302,27.0652448 236.02,27.17 L240.42,27.17 L240.42,39.03 L243.9,39.03 L243.9,41.31 L234.68,41.31 Z M236.1,29.43 C234.617467,29.335324 233.157753,29.8314828 232.04,30.81 C231.049559,31.8269823 230.530851,33.2126215 230.61,34.63 C230.61,37.5633333 231.943333,39.03 234.61,39.03 L237.95,39.03 L237.95,29.43 L236.1,29.43 Z M232.76,21.18 C233.773333,21.18 234.28,21.7266667 234.28,22.82 C234.28,23.9133333 233.773333,24.4633333 232.76,24.47 C231.753333,24.47 231.25,23.93 231.25,22.85 C231.25,21.77 231.753333,21.2133333 232.76,21.18 Z M237.24,21.18 C238.253333,21.18 238.76,21.7333333 238.76,22.84 C238.76,23.9466667 238.256667,24.4866667 237.25,24.46 C236.23,24.46 235.72,23.92 235.72,22.84 C235.72,21.76 236.22,21.2066667 237.22,21.18 L237.24,21.18 Z" id="Shape"></path>
            <polygon id="Shape" points="243.31 39.03 248.88 39.03 248.88 41.31 243.31 41.31"></polygon>
            <path d="M248.3,41.31 L248.3,39.03 L252.62,39.03 L252.62,29.43 L255.1,29.43 L255.1,35.8 C255.065822,36.6656514 255.387415,37.5075757 255.99,38.13 C256.593448,38.7387775 257.423294,39.068542 258.28,39.04 L260.09,39.04 L260.09,29.43 L262.57,29.43 L262.57,35.8 C262.537292,36.6673065 262.862752,37.5098868 263.47,38.13 C264.069682,38.7382561 264.896302,39.068179 265.75,39.04 L267.56,39.04 L267.56,27.18 L270.04,27.18 L270.04,36.26 C270.011365,37.0079273 270.297979,37.7335317 270.83,38.26 C271.402787,38.7796896 272.157284,39.0527457 272.93,39.02 L273.4,39.02 L273.4,41.3 L273.32,41.3 C271.989424,41.4585745 270.694508,40.7992727 270.04,39.63 L270.04,41.3 L265.83,41.3 C264.504266,41.4612743 263.213686,40.8001489 262.57,39.63 L262.57,41.3 L258.37,41.3 C256.736667,41.3 255.65,40.7433333 255.11,39.63 L255.11,41.3 L248.3,41.31 Z" id="Shape"></path>
            <polygon id="Shape" points="272.81 39.03 278.39 39.03 278.39 41.31 272.81 41.31"></polygon>
            <path d="M277.76,41.31 L277.76,39.03 L282.08,39.03 L282.08,29.43 L284.56,29.43 L284.56,35.8 C284.525822,36.6656514 284.847415,37.5075757 285.45,38.13 C286.053448,38.7387775 286.883294,39.068542 287.74,39.04 L289.55,39.04 L289.55,29.43 L292.03,29.43 L292.03,35.8 C291.996995,36.6654584 292.318419,37.5069372 292.92,38.13 C293.519682,38.7382561 294.346302,39.068179 295.2,39.04 L297.01,39.04 L297.01,27.18 L299.49,27.18 L299.49,41.31 L295.29,41.31 C293.656667,41.31 292.566667,40.7533333 292.02,39.64 L292.02,41.31 L287.82,41.31 C286.186667,41.31 285.1,40.7533333 284.56,39.64 L284.56,41.31 L277.76,41.31 Z" id="Shape"></path>
            <path d="M315.61,39.03 L318.16,39.03 L318.16,41.31 L315.61,41.31 L315.61,42.01 C315.710247,43.7415096 315.066234,45.4334089 313.84,46.66 C312.454622,47.8469369 310.660605,48.4461386 308.84,48.33 C306.980843,48.3550988 305.15527,47.8335064 303.59,46.83 L304.76,44.83 C306.024859,45.5409042 307.440216,45.9418649 308.89,46 C310.010091,46.0749682 311.11621,45.7170011 311.98,45 C312.763618,44.2755624 313.194164,43.2466304 313.16,42.18 L313.16,41.34 L310.31,41.34 C308.561152,41.4506928 306.838389,40.8728494 305.51,39.73 C304.279445,38.5033288 303.641078,36.8034488 303.76,35.07 C303.667879,33.1136084 304.46555,31.220516 305.93,29.92 C307.573012,28.5912175 309.649883,27.9179265 311.76,28.03 L315.58,28.03 L315.61,39.03 Z M311.88,30.31 C310.422885,30.2200793 308.982972,30.6644969 307.83,31.56 C306.852821,32.4449202 306.327351,33.7236851 306.4,35.04 C306.4,37.7066667 307.733333,39.04 310.4,39.04 L313.14,39.04 L313.14,30.31 L311.88,30.31 Z M313.49,24.37 C313.17,24.37 312.29,24.46 310.86,24.64 C309.43,24.82 308.43,24.97 307.86,25.08 L307.86,23.72 L309.24,23.52 C308.604343,23.1270337 308.223968,22.427145 308.24,21.68 C308.200928,20.9487633 308.495064,20.2391607 309.04,19.75 C309.658223,19.2618776 310.433508,19.0164893 311.22,19.06 C311.884709,19.0522848 312.542077,19.199508 313.14,19.49 L312.7,20.81 C312.248936,20.5766129 311.747855,20.4564908 311.24,20.46 C310.826066,20.3965189 310.406409,20.5317006 310.107355,20.824852 C309.808301,21.1180034 309.664782,21.5348834 309.72,21.95 C309.713192,22.5414924 310.059242,23.0802291 310.6,23.32 L311.13,23.23 C312.02,23.1 312.82,23 313.52,22.93 L313.49,24.37 Z" id="Shape"></path>
            <polygon id="Shape" points="317.58 39.03 323.15 39.03 323.15 41.31 317.58 41.31"></polygon>
            <path d="M322.01,41.31 L322.01,39.03 L326.33,39.03 C325.610946,37.6965375 325.265444,36.1936027 325.33,34.68 C325.248763,32.6334405 325.925275,30.6288281 327.23,29.05 C328.471011,27.5885839 330.314118,26.7776168 332.23,26.85 C334.023094,26.7804531 335.764747,27.4575616 337.04,28.72 C338.325407,30.1247025 338.988929,31.9890542 338.88,33.89 C338.987594,35.943545 338.173653,37.938067 336.66,39.33 C335.114915,40.6834009 333.112876,41.3984148 331.06,41.33 L322.01,41.31 Z M329.01,39.03 L331.08,39.03 C333.094145,38.9716436 334.905393,37.7886073 335.768346,35.9677561 C336.631299,34.1469049 336.40014,31.9959143 335.17,30.4 C334.443545,29.5482436 333.36888,29.0734769 332.25,29.11 C331.05069,29.0980795 329.917648,29.6590281 329.2,30.62 C328.340088,31.7930791 327.912569,33.227565 327.99,34.68 C327.865964,36.197224 328.211591,37.7158842 328.98,39.03 L329.01,39.03 Z" id="Shape"></path>
            <path d="M18.76,65.57 C18.7601225,71.6179002 13.8777778,76.5315134 7.83,76.57 L1.25,76.57 C0.957406722,76.5779915 0.676001488,76.4573893 0.48,76.24 C0.268939899,76.0395323 0.149607581,75.7610902 0.15,75.47 L0.15,55.73 C0.170664605,55.1312552 0.651255164,54.6506646 1.25,54.63 L7.82,54.63 C13.8483595,54.6627933 18.7272067,59.5416405 18.76,65.57 Z M16.58,65.57 C16.5773778,63.2370959 15.6453649,61.001376 13.9901311,59.3574023 C12.3348973,57.7134286 10.0928676,56.796698 7.76,56.81 L2.33,56.81 L2.33,74.34 L7.76,74.34 C12.5996316,74.3344816 16.5200031,70.4096347 16.52,65.57 L16.58,65.57 Z" id="Shape"></path>
            <path d="M33.28,71.05 C33.1547486,73.9773756 30.7450539,76.2861731 27.815,76.2861731 C24.8849461,76.2861731 22.4752514,73.9773756 22.35,71.05 L22.35,62.28 C22.3181036,61.979612 22.4237025,61.6809034 22.6373029,61.4673029 C22.8509034,61.2537025 23.149612,61.1481036 23.45,61.18 C23.745176,61.1550018 24.0362442,61.2621611 24.2447448,61.4725923 C24.4532454,61.6830235 24.5577176,61.9750669 24.53,62.27 L24.53,71.04 C24.53,72.851494 25.998506,74.32 27.81,74.32 C29.621494,74.32 31.09,72.851494 31.09,71.04 L31.09,62.28 C31.09,61.6752482 31.5802482,61.185 32.185,61.185 C32.7897518,61.185 33.28,61.6752482 33.28,62.28 L33.28,71.05 Z" id="Shape"></path>
            <path d="M52.91,68.85 C53.0112486,71.6508555 51.5747626,74.2833916 49.1646204,75.7138661 C46.7544781,77.1443405 43.7555219,77.1443405 41.3453796,75.7138661 C38.9352374,74.2833916 37.4987514,71.6508555 37.6,68.85 L37.6,55.73 C37.6,55.1252482 38.0902482,54.635 38.695,54.635 C39.2997518,54.635 39.79,55.1252482 39.79,55.73 L39.79,63.5 C41.9643087,61.2761095 45.2685933,60.5899753 48.1485508,61.7643482 C51.0285084,62.9387212 52.9107944,65.739806 52.91,68.85 L52.91,68.85 Z M50.73,68.85 C50.738691,66.224277 48.8901431,63.9585964 46.3161087,63.4400951 C43.7420743,62.9215938 41.1605076,64.2948931 40.1519432,66.7192063 C39.1433788,69.1435196 39.9891272,71.9426529 42.1713888,73.402869 C44.3536504,74.8630852 47.2637447,74.5770981 49.12,72.72 C50.1796993,71.7132541 50.7736764,70.3116131 50.76,68.85 L50.73,68.85 Z" id="Shape"></path>
            <path d="M66.76,75.42 C66.7918964,75.720388 66.6862975,76.0190966 66.4726971,76.2326971 C66.2590966,76.4462975 65.960388,76.5518964 65.66,76.52 C65.3629078,76.5454606 65.0699524,76.4370135 64.8610496,76.2242422 C64.6521469,76.0114708 64.5490929,75.7165751 64.58,75.42 C62.4055345,77.0599306 59.355057,76.8466105 57.43,74.92 C55.875245,73.3532938 55.412181,71.0067497 56.2552162,68.9668666 C57.0982514,66.9269835 59.08281,65.5919837 61.29,65.58 C62.4787671,65.5687718 63.6370416,65.9560368 64.58,66.68 C64.5800084,64.8613584 63.1086332,63.385511 61.29,63.38 C60.6038955,63.3995452 59.940472,63.6299975 59.39,64.04 C59.0413349,64.3317601 58.6410986,64.555621 58.21,64.7 C57.5887843,64.6840176 57.0905086,64.1813324 57.08,63.56 C57.1011154,63.2698093 57.2252472,62.9967192 57.43,62.79 C58.3918351,61.6938603 59.8038768,61.1002866 61.26,61.18 C62.7185831,61.1746742 64.1191079,61.751052 65.1514269,62.781494 C66.1837458,63.811936 66.7626714,65.2114096 66.76,66.67 L66.76,75.42 Z M64.58,71.05 C64.6023041,69.475877 63.5095953,68.1051878 61.970087,67.7761365 C60.4305786,67.4470852 58.8730084,68.2513092 58.2498617,69.6970094 C57.6267151,71.1427095 58.1115322,72.8272729 59.4078376,73.7205551 C60.704143,74.6138373 62.4509286,74.4670682 63.58,73.37 C64.2093482,72.7634644 64.5603356,71.9239896 64.55,71.05 L64.58,71.05 Z" id="Shape"></path>
            <path d="M74.51,56.29 C74.5165857,56.7253669 74.3385632,57.1431748 74.02,57.44 C73.371618,58.0712984 72.338382,58.0712984 71.69,57.44 C71.3714368,57.1431748 71.1934143,56.7253669 71.2,56.29 C71.2,55.3759687 71.9409687,54.635 72.855,54.635 C73.7690313,54.635 74.51,55.3759687 74.51,56.29 L74.51,56.29 Z M73.94,62.29 L73.94,75.42 C73.94,76.0219904 73.4519904,76.51 72.85,76.51 C72.2480096,76.51 71.76,76.0219904 71.76,75.42 L71.76,62.28 C71.76,61.6780096 72.2480096,61.19 72.85,61.19 C73.4519904,61.19 73.94,61.6780096 73.94,62.28 L73.94,62.29 Z" id="Shape"></path>
            <path d="M101.54,55.73 C101.568168,56.0268298 101.462413,56.320746 101.251579,56.5315793 C101.040746,56.7424126 100.74683,56.8481682 100.45,56.82 L90.59,56.82 L90.59,64.5 L98.25,64.5 C98.8519904,64.5 99.34,64.9880096 99.34,65.59 C99.34,66.1919904 98.8519904,66.68 98.25,66.68 L90.59,66.68 L90.59,75.43 C90.59,76.0319904 90.1019904,76.52 89.5,76.52 C88.8980096,76.52 88.41,76.0319904 88.41,75.43 L88.41,55.73 C88.4306646,55.1312552 88.9112552,54.6506646 89.51,54.63 L100.46,54.63 C100.757092,54.6045394 101.050048,54.7129865 101.25895,54.9257578 C101.467853,55.1385292 101.570907,55.4334249 101.54,55.73 Z" id="Shape"></path>
            <path d="M115.33,71.05 C115.204749,73.9773756 112.795054,76.2861731 109.865,76.2861731 C106.934946,76.2861731 104.525251,73.9773756 104.4,71.05 L104.4,62.28 C104.371344,61.981254 104.478379,61.6854331 104.69156,61.4741895 C104.904742,61.2629458 105.201528,61.1586171 105.5,61.19 C105.795176,61.1650018 106.086244,61.2721611 106.294745,61.4825923 C106.503245,61.6930235 106.607718,61.9850669 106.58,62.28 L106.58,71.05 C106.58,72.861494 108.048506,74.33 109.86,74.33 C111.671494,74.33 113.14,72.861494 113.14,71.05 L113.14,62.28 C113.14,61.6752482 113.630248,61.185 114.235,61.185 C114.839752,61.185 115.33,61.6752482 115.33,62.28 L115.33,71.05 Z" id="Shape"></path>
            <path d="M129.86,74.38 C129.86743,75.1135388 129.433748,75.7798316 128.76,76.07 C128.091373,76.3843952 127.358623,76.5384782 126.62,76.52 C124.201513,76.5367142 122.222922,74.5983207 122.19,72.18 L122.19,63.38 L120.01,63.38 C119.40801,63.38 118.92,62.8919904 118.92,62.29 C118.92,61.6880096 119.40801,61.2 120.01,61.2 L122.19,61.2 L122.19,55.73 C122.19,55.1252482 122.680248,54.635 123.285,54.635 C123.889752,54.635 124.38,55.1252482 124.38,55.73 L124.38,61.18 L126.56,61.18 C127.16199,61.18 127.65,61.6680096 127.65,62.27 C127.65,62.8719904 127.16199,63.36 126.56,63.36 L124.38,63.36 L124.38,72.18 C124.372017,72.7654525 124.60315,73.3288379 125.02,73.74 C125.42365,74.1629966 125.985375,74.3985586 126.57,74.39 C127.091464,74.3792505 127.59316,74.1884649 127.99,73.85 C128.264102,73.5770874 128.611462,73.3895132 128.99,73.31 C129.56,73.26 129.86,73.63 129.86,74.38 Z" id="Shape"></path>
            <path d="M144.37,71.05 C144.455924,73.0582221 143.433502,74.9517843 141.70724,75.9815229 C139.980979,77.0112615 137.829021,77.0112615 136.10276,75.9815229 C134.376498,74.9517843 133.354076,73.0582221 133.44,71.05 L133.44,62.28 C133.44,61.6780096 133.92801,61.19 134.53,61.19 C135.13199,61.19 135.62,61.6780096 135.62,62.28 L135.62,71.05 C135.62,72.861494 137.088506,74.33 138.9,74.33 C140.711494,74.33 142.18,72.861494 142.18,71.05 L142.18,62.28 C142.18,61.6752482 142.670248,61.185 143.275,61.185 C143.879752,61.185 144.37,61.6752482 144.37,62.28 L144.37,71.05 Z" id="Shape"></path>
            <path d="M157.76,63.97 C157.760019,64.2623118 157.632138,64.5399973 157.41,64.73 C157.195734,64.9313697 156.914006,65.0454877 156.62,65.05 C156.33,65.05 155.95,64.77 155.47,64.21 C155.061895,63.6802408 154.428688,63.3728947 153.76,63.38 C152.555022,63.3908563 151.580856,64.3650219 151.57,65.57 L151.57,75.43 C151.57,76.0319904 151.08199,76.52 150.48,76.52 C149.87801,76.52 149.39,76.0319904 149.39,75.43 L149.39,62.28 C149.361344,61.981254 149.468379,61.6854331 149.68156,61.4741895 C149.894742,61.2629458 150.191528,61.1586171 150.49,61.19 C150.930204,61.1624238 151.33649,61.4265095 151.49,61.84 C152.168565,61.4087366 152.955986,61.1797948 153.76,61.18 C154.5373,61.1868209 155.299255,61.3971342 155.97,61.79 C156.644619,62.1477964 157.197955,62.6976519 157.56,63.37 C157.674303,63.5508379 157.74294,63.756748 157.76,63.97 L157.76,63.97 Z" id="Shape"></path>
            <path d="M175.11,72.01 C175.105378,72.2079253 175.057599,72.4024549 174.97,72.58 C174.355029,73.7665119 173.405948,74.746881 172.24,75.4 C171.075777,76.100221 169.748305,76.4829466 168.39,76.51 C164.25069,76.4441242 160.910573,73.1053199 160.84307,68.966036 C160.775567,64.8267521 164.005039,61.3808117 168.14,61.18 C168.946189,61.1773249 169.747179,61.3091333 170.51,61.57 C171.507336,61.9077131 172.440462,62.411466 173.27,63.06 C174.4,63.92 174.97,64.73 174.98,65.5 C174.986484,65.875757 174.781747,66.2234239 174.45,66.4 L164.22,72.54 C165.256017,73.7223824 166.768943,74.3760249 168.34,74.32 C169.936518,74.3604868 171.456324,73.6358844 172.43,72.37 C172.56,72.18 172.76,71.89 173.04,71.51 C173.227946,71.1865089 173.558162,70.9713116 173.93,70.93 C174.225298,70.9235526 174.511755,71.0309739 174.73,71.23 C174.968737,71.4186474 175.108597,71.705728 175.11,72.01 Z M172.3,65.18 C170.774514,63.4803188 168.353587,62.9073062 166.228042,63.7428193 C164.102497,64.5783324 162.719768,66.6464925 162.76,68.93 C162.768152,69.5229866 162.872857,70.1106844 163.07,70.67 L172.3,65.18 Z" id="Shape"></path>
            <path d="M201.2,55.73 C201.227718,56.0249331 201.123245,56.3169765 200.914745,56.5274077 C200.706244,56.7378389 200.415176,56.8449982 200.12,56.82 L190.26,56.82 L190.26,64.5 L197.92,64.5 C198.52199,64.5 199.01,64.9880096 199.01,65.59 C199.01,66.1919904 198.52199,66.68 197.92,66.68 L190.26,66.68 L190.26,75.43 C190.26,76.0319904 189.77199,76.52 189.17,76.52 C188.56801,76.52 188.08,76.0319904 188.08,75.43 L188.08,55.73 C188.095751,55.1291321 188.579132,54.6457513 189.18,54.63 L200.13,54.63 C200.425427,54.6076904 200.715539,54.7175271 200.922116,54.9298963 C201.128693,55.1422655 201.230468,55.4353026 201.2,55.73 Z" id="Shape"></path>
            <path d="M218.64,68.85 C218.650114,72.5158276 216.068013,75.677752 212.474118,76.4004613 C208.880222,77.1231707 205.276579,75.2051598 203.868861,71.8203813 C202.461144,68.4356028 203.64185,64.5277974 206.688309,62.4888067 C209.734768,60.449816 213.797568,60.8481494 216.39,63.44 C217.854401,64.855591 218.668667,66.8134473 218.64,68.85 L218.64,68.85 Z M216.46,68.85 C216.468691,66.224277 214.620143,63.9585964 212.046109,63.4400951 C209.472074,62.9215938 206.890508,64.2948931 205.881943,66.7192063 C204.873379,69.1435196 205.719127,71.9426529 207.901389,73.402869 C210.08365,74.8630852 212.993745,74.5770981 214.85,72.72 C215.897646,71.7073974 216.480288,70.3068854 216.46,68.85 L216.46,68.85 Z" id="Shape"></path>
            <path d="M233.16,71.05 C233.034749,73.9773756 230.625054,76.2861731 227.695,76.2861731 C224.764946,76.2861731 222.355251,73.9773756 222.23,71.05 L222.23,62.28 C222.23,61.6780096 222.71801,61.19 223.32,61.19 C223.92199,61.19 224.41,61.6780096 224.41,62.28 L224.41,71.05 C224.409442,72.3770649 225.208595,73.5737063 226.434611,74.0816276 C227.660628,74.5895489 229.071903,74.3086558 230.01,73.37 C230.652428,72.7700626 231.014962,71.9289846 231.01,71.05 L231.01,62.28 C231.01,61.6780096 231.49801,61.19 232.1,61.19 C232.70199,61.19 233.19,61.6780096 233.19,62.28 L233.16,71.05 Z" id="Shape"></path>
            <path d="M249.15,75.42 C249.15,76.0219904 248.66199,76.51 248.06,76.51 C247.45801,76.51 246.97,76.0219904 246.97,75.42 L246.97,66.66 C246.97,64.8429832 245.497017,63.37 243.68,63.37 C241.862983,63.37 240.39,64.8429832 240.39,66.66 L240.39,75.42 C240.39,76.0219904 239.90199,76.51 239.3,76.51 C238.69801,76.51 238.21,76.0219904 238.21,75.42 L238.21,62.28 C238.21,61.6724868 238.702487,61.18 239.31,61.18 C239.917513,61.18 240.41,61.6724868 240.41,62.28 C242.066633,61.0387044 244.282063,60.8389376 246.134026,61.7638607 C247.985989,62.6887837 249.157163,64.5799178 249.16,66.65 L249.15,75.42 Z" id="Shape"></path>
            <path d="M268.07,75.42 C268.068719,75.9644465 267.665892,76.4244513 267.126375,76.4975634 C266.586859,76.5706755 266.076134,76.2344698 265.93,75.71 C265.864453,75.2162153 265.844369,74.7174563 265.87,74.22 C263.691966,76.4436648 260.384909,77.1282498 257.503071,75.9520156 C254.621232,74.7757814 252.737706,71.9726385 252.737706,68.86 C252.737706,65.7473615 254.621232,62.9442186 257.503071,61.7679844 C260.384909,60.5917502 263.691966,61.2763352 265.87,63.5 L265.87,55.73 C265.87,55.1252482 266.360248,54.635 266.965,54.635 C267.569752,54.635 268.06,55.1252482 268.06,55.73 L268.07,75.42 Z M265.88,68.85 C265.881918,66.2294228 264.031438,63.9728454 261.461232,63.461508 C258.891025,62.9501706 256.317756,64.3266523 255.31651,66.7484152 C254.315265,69.1701781 255.165225,71.9619485 257.346136,73.4148971 C259.527046,74.8678456 262.43079,74.5768386 264.28,72.72 C265.326641,71.7067127 265.909094,70.3066553 265.89,68.85 L265.88,68.85 Z" id="Shape"></path>
            <path d="M283.33,75.42 C283.361896,75.720388 283.256298,76.0190966 283.042697,76.2326971 C282.829097,76.4462975 282.530388,76.5518964 282.23,76.52 C281.932908,76.5454606 281.639952,76.4370135 281.43105,76.2242422 C281.222147,76.0114708 281.119093,75.7165751 281.15,75.42 C278.975535,77.0599306 275.925057,76.8466105 274,74.92 C272.443996,73.3519987 271.981588,71.0030567 272.827176,68.9622829 C273.672765,66.9215091 275.660993,65.5879805 277.87,65.58 C279.055472,65.5702393 280.210115,65.9574671 281.15,66.68 C281.144598,64.8674886 279.682445,63.3964196 277.87,63.38 C277.180457,63.3974988 276.513242,63.6280545 275.96,64.04 C275.610672,64.3307971 275.210625,64.5545523 274.78,64.7 C274.158784,64.6840176 273.660509,64.1813324 273.65,63.56 C273.671115,63.2698093 273.795247,62.9967192 274,62.79 C274.968457,61.685285 276.39359,61.0908643 277.86,61.18 C280.878715,61.1855036 283.324496,63.631285 283.33,66.65 L283.33,75.42 Z M281.15,71.05 C281.172304,69.475877 280.079595,68.1051878 278.540087,67.7761365 C277.000579,67.4470852 275.443008,68.2513092 274.819862,69.6970094 C274.196715,71.1427095 274.681532,72.8272729 275.977838,73.7205551 C277.274143,74.6138373 279.020929,74.4670682 280.15,73.37 C280.786713,72.7669055 281.145128,71.9269837 281.14,71.05 L281.15,71.05 Z" id="Shape"></path>
            <path d="M297.84,74.38 C297.840737,75.1232658 297.389438,75.7922965 296.7,76.07 C296.031373,76.3843952 295.298623,76.5384782 294.56,76.52 C292.15876,76.5146859 290.207343,74.5810905 290.18,72.18 L290.18,63.38 L288,63.38 C287.39801,63.38 286.91,62.8919904 286.91,62.29 C286.91,61.6880096 287.39801,61.2 288,61.2 L290.18,61.2 L290.18,55.73 C290.18,55.1280096 290.66801,54.64 291.27,54.64 C291.87199,54.64 292.36,55.1280096 292.36,55.73 L292.36,61.18 L294.55,61.18 C295.15199,61.18 295.64,61.6680096 295.64,62.27 C295.64,62.8719904 295.15199,63.36 294.55,63.36 L292.36,63.36 L292.36,72.18 C292.352017,72.7654525 292.58315,73.3288379 293,73.74 C293.40365,74.1629966 293.965375,74.3985586 294.55,74.39 C295.071624,74.3800751 295.573588,74.1891875 295.97,73.85 C296.244102,73.5770874 296.591462,73.3895132 296.97,73.31 C297.54,73.26 297.84,73.63 297.84,74.38 Z" id="Shape"></path>
            <path d="M304.9,56.29 C304.906586,56.7253669 304.728563,57.1431748 304.41,57.44 C303.761618,58.0712984 302.728382,58.0712984 302.08,57.44 C301.76248,57.1424439 301.584664,56.7251207 301.59,56.29 C301.59,55.3732073 302.333207,54.63 303.25,54.63 C304.166793,54.63 304.91,55.3732073 304.91,56.29 L304.9,56.29 Z M304.33,62.29 L304.33,75.42 C304.33,76.0247518 303.839752,76.515 303.235,76.515 C302.630248,76.515 302.14,76.0247518 302.14,75.42 L302.14,62.28 C302.14,61.6752482 302.630248,61.185 303.235,61.185 C303.839752,61.185 304.33,61.6752482 304.33,62.28 L304.33,62.29 Z" id="Shape"></path>
            <path d="M323.97,68.85 C323.960877,72.5173803 321.36008,75.6665884 317.760544,76.3687983 C314.161007,77.0710083 310.567243,75.1302564 309.180359,71.7352139 C307.793474,68.3401715 309.000504,64.4382822 312.062165,62.4193742 C315.123827,60.4004663 319.185713,60.8279499 321.76,63.44 C323.206698,64.8644275 324.005579,66.8200583 323.97,68.85 Z M321.79,68.85 C321.798691,66.224277 319.950143,63.9585964 317.376109,63.4400951 C314.802074,62.9215938 312.220508,64.2948931 311.211943,66.7192063 C310.203379,69.1435196 311.049127,71.9426529 313.231389,73.402869 C315.41365,74.8630852 318.323745,74.5770981 320.18,72.72 C321.215619,71.7016096 321.786952,70.3022049 321.76,68.85 L321.79,68.85 Z" id="Shape"></path>
            <path d="M339.23,75.42 C339.23,76.0247518 338.739752,76.515 338.135,76.515 C337.530248,76.515 337.04,76.0247518 337.04,75.42 L337.04,66.66 C337.04,64.8429833 335.567017,63.3700004 333.75,63.3700004 C331.932983,63.3700004 330.46,64.8429833 330.46,66.66 L330.46,75.42 C330.46,76.0219904 329.97199,76.51 329.37,76.51 C328.76801,76.51 328.28,76.0219904 328.28,75.42 L328.28,62.28 C328.28,61.6724868 328.772487,61.18 329.38,61.18 C329.987513,61.18 330.48,61.6724868 330.48,62.28 C332.136633,61.0387044 334.352063,60.8389376 336.204026,61.7638607 C338.055989,62.6887837 339.227163,64.5799178 339.23,66.65 L339.23,75.42 Z" id="Shape"></path>
        </g>
    </g>
</svg>