<?xml version="1.0" encoding="UTF-8" standalone="no"?>
<svg width="456px" height="141px" viewBox="0 0 456 141" version="1.1" xmlns="http://www.w3.org/2000/svg" xmlns:xlink="http://www.w3.org/1999/xlink">
    <!-- Generator: Sketch 42 (36781) - http://www.bohemiancoding.com/sketch -->
    <title>HSDF-logo</title>
    <desc>Created with Sketch.</desc>
    <defs></defs>
    <g id="Page-1" stroke="none" stroke-width="1" fill="none" fill-rule="evenodd">
        <g id="HSDF-logo" transform="translate(-1.000000, 0.000000)" fill-rule="nonzero">
            <g id="Layer_1">
                <circle id="Oval" fill="#802528" cx="228.84" cy="36.08" r="36.08"></circle>
                <path d="M238.65,41.35 L238.72,41.42 C241.829533,44.5099879 243.572549,48.7162727 243.56,53.1 C244.76,49.65 246.39,44.85 240.63,37.21 L234.71,31.37 L237.8,28.28 L234.74,25.22 L231.63,28.33 L226.16,22.97 L226.16,22.97 C223.678631,20.486048 223.174224,16.645471 224.930039,13.6050232 C226.685855,10.5645753 230.264397,9.08184354 233.656063,9.98948594 C237.047729,10.8971283 239.407418,13.9689881 239.41,17.48 L243.76,17.48 C243.798926,11.9862134 240.134688,7.15454157 234.834023,5.71018901 C229.533357,4.26583646 223.924511,6.57073034 221.171037,11.324843 C218.417562,16.0789556 219.209429,22.0909971 223.1,25.97 L223.1,25.97 L228.58,31.37 L224.58,35.37 C224.58,35.37 220.1,30.94 219.91,30.74 L219.91,30.74 C214.953492,25.8074074 213.646992,18.2850127 216.65,11.97 C211.196876,18.8712738 211.786189,28.764861 218.02,34.97 L232.53,49.27 L232.53,49.27 C234.999796,51.7604987 235.491938,55.5980896 233.730504,58.6312115 C231.969071,61.6643333 228.392032,63.1388172 225.00487,62.2279876 C221.617708,61.317158 219.262622,58.2474877 219.26,54.74 L214.91,54.74 C214.907228,60.2223493 218.587916,65.0227112 223.88315,66.4428019 C229.178384,67.8628927 234.767145,65.5484376 237.507988,60.800392 C240.248832,56.0523464 239.457992,50.0552209 235.58,46.18 L227.7,38.43 L231.7,34.43 L238.65,41.35 Z" id="Shape" fill="#DBC79D"></path>
                <polygon id="Shape" fill="#802528" points="12.83 129.78 12.83 122.78 14.99 122.78 14.99 140.14 12.83 140.14 12.83 131.81 4.56 131.81 4.56 140.14 2.4 140.14 2.4 122.78 4.56 122.78 4.56 129.78"></polygon>
                <path d="M19.98,122.78 L19.98,133.03 C19.98,135.86 20.83,138.49 24.17,138.49 C27.51,138.49 28.36,135.87 28.36,133.03 L28.36,122.78 L30.52,122.78 L30.52,133.78 C30.52,137.6 28.15,140.53 24.17,140.53 C20.19,140.53 17.81,137.61 17.81,133.78 L17.81,122.78 L19.98,122.78 Z" id="Shape" fill="#802528"></path>
                <path d="M41.23,126.07 C40.6970476,125.029452 39.6081596,124.393292 38.44,124.44 C36.9690188,124.346516 35.6876549,125.433466 35.54,126.9 C35.54,128.26 36.87,128.97 37.96,129.39 L39.2,129.87 C41.66,130.87 43.51,132.2 43.51,135.1 C43.5274547,136.564634 42.9436436,137.972373 41.8947732,138.994786 C40.8459029,140.017198 39.4237098,140.564861 37.96,140.51 C35.193511,140.498763 32.8812307,138.40218 32.6,135.65 L34.79,135.19 C34.806077,136.361831 35.4460971,137.436071 36.4689711,138.008063 C37.4918452,138.580056 38.7421741,138.562902 39.7489711,137.963063 C40.7557682,137.363225 41.366077,136.271831 41.35,135.1 C41.35,133.24 39.85,132.43 38.35,131.81 L37.15,131.3 C35.15,130.45 33.37,129.3 33.37,126.9 C33.37,124.09 35.86,122.41 38.48,122.41 C40.3437363,122.384974 42.0666774,123.398695 42.95,125.04 L41.23,126.07 Z" id="Shape" fill="#802528"></path>
                <path d="M53.59,126.07 C53.0570476,125.029452 51.9681596,124.393292 50.8,124.44 C49.3290188,124.346516 48.0476549,125.433466 47.9,126.9 C47.9,128.26 49.24,128.97 50.32,129.39 L51.56,129.87 C54.02,130.87 55.87,132.2 55.87,135.1 C55.8874547,136.564634 55.3036436,137.972373 54.2547732,138.994786 C53.2059029,140.017198 51.7837098,140.564861 50.32,140.51 C47.5496814,140.50387 45.2316344,138.405973 44.95,135.65 L47.14,135.19 C47.156077,136.361831 47.7960971,137.436071 48.8189711,138.008063 C49.8418452,138.580056 51.0921741,138.562902 52.0989711,137.963063 C53.1057682,137.363225 53.716077,136.271831 53.7,135.1 C53.7,133.24 52.2,132.43 50.7,131.81 L49.5,131.3 C47.5,130.45 45.72,129.3 45.72,126.9 C45.72,124.09 48.21,122.41 50.83,122.41 C52.6937363,122.384974 54.4166774,123.398695 55.3,125.04 L53.59,126.07 Z" id="Shape" fill="#802528"></path>
                <path d="M60.7,135.79 L58.7,140.14 L56.37,140.14 L64.66,122.04 L72.95,140.14 L70.62,140.14 L68.62,135.79 L60.7,135.79 Z M64.7,126.79 L61.62,133.79 L67.79,133.79 L64.7,126.79 Z" id="Shape" fill="#802528"></path>
                <polygon id="Shape" fill="#802528" points="76.51 140.14 74.35 140.14 74.35 122.78 76.51 122.78"></polygon>
                <polygon id="Shape" fill="#802528" points="79.55 121.97 92.55 135.62 92.55 122.78 94.71 122.78 94.71 140.86 81.71 127.21 81.71 140.15 79.54 140.15"></polygon>
                <path d="M112.16,126.07 C111.627048,125.029452 110.53816,124.393292 109.37,124.44 C107.899019,124.346516 106.617655,125.433466 106.47,126.9 C106.47,128.26 107.8,128.97 108.89,129.39 L110.13,129.87 C112.59,130.87 114.44,132.2 114.44,135.1 C114.457455,136.564634 113.873644,137.972373 112.824773,138.994786 C111.775903,140.017198 110.35371,140.564861 108.89,140.51 C106.123511,140.498763 103.811231,138.40218 103.53,135.65 L105.72,135.19 C105.736077,136.361831 106.376097,137.436071 107.398971,138.008063 C108.421845,138.580056 109.672174,138.562902 110.678971,137.963063 C111.685768,137.363225 112.296077,136.271831 112.28,135.1 C112.28,133.24 110.78,132.43 109.28,131.81 L108.08,131.3 C106.08,130.45 104.3,129.3 104.3,126.9 C104.3,124.09 106.79,122.41 109.41,122.41 C111.273736,122.384974 112.996677,123.398695 113.88,125.04 L112.16,126.07 Z" id="Shape" fill="#802528"></path>
                <path d="M119.3,135.79 L117.3,140.14 L114.97,140.14 L123.26,122.04 L131.55,140.14 L129.22,140.14 L127.22,135.79 L119.3,135.79 Z M123.3,126.79 L120.21,133.79 L126.38,133.79 L123.3,126.79 Z" id="Shape" fill="#802528"></path>
                <path d="M138.34,122.78 L138.34,133.78 C138.34,137.12 137.7,140.48 133.64,140.48 C132.679796,140.488305 131.736828,140.224829 130.92,139.72 L132,137.88 C132.498563,138.255727 133.105713,138.45928 133.73,138.46 C136.22,138.46 136.17,135.56 136.17,133.79 L136.17,122.79 L138.34,122.78 Z" id="Shape" fill="#802528"></path>
                <polygon id="Shape" fill="#802528" points="146.63 135.21 151.53 122.41 156.43 135.21 161.29 122.78 163.64 122.78 156.43 140.83 151.53 128.1 146.63 140.83 139.42 122.78 141.77 122.78"></polygon>
                <path d="M165.16,135.79 L163.16,140.14 L160.83,140.14 L169.12,122.04 L177.41,140.14 L175.08,140.14 L173.08,135.79 L165.16,135.79 Z M169.16,126.79 L166.07,133.79 L172.24,133.79 L169.16,126.79 Z" id="Shape" fill="#802528"></path>
                <polygon id="Shape" fill="#802528" points="178.67 121.97 191.67 135.62 191.67 122.78 193.83 122.78 193.83 140.86 180.83 127.21 180.83 140.15 178.67 140.15"></polygon>
                <polygon id="Shape" fill="#802528" points="199.04 140.14 196.88 140.14 196.88 122.78 199.04 122.78"></polygon>
                <polygon id="Shape" fill="#802528" points="213.64 131.9 213.64 133.63 208.64 133.63 208.64 131.9"></polygon>
                <path d="M223.05,122.78 L226.64,122.78 C231.96,122.78 236.38,125.59 236.38,131.37 C236.38,137.15 232.05,140.14 226.57,140.14 L223.05,140.14 L223.05,122.78 Z M225.21,138.16 L225.97,138.16 C230.39,138.16 234.21,136.5 234.21,131.46 C234.21,126.42 230.39,124.76 225.97,124.76 L225.21,124.76 L225.21,138.16 Z" id="Shape" fill="#802528"></path>
                <path d="M241,135.79 L239,140.14 L236.67,140.14 L244.96,122.04 L253.25,140.14 L250.92,140.14 L248.92,135.79 L241,135.79 Z M245,126.79 L241.91,133.79 L248.08,133.79 L245,126.79 Z" id="Shape" fill="#802528"></path>
                <polygon id="Shape" fill="#802528" points="257.67 128.67 257.67 128.67 255.67 140.14 253.36 140.14 256.91 122.04 262.91 135.72 268.91 122.04 272.46 140.14 270.16 140.14 268.16 128.67 268.16 128.67 262.96 140.5"></polygon>
                <path d="M276.77,135.79 L274.77,140.14 L272.46,140.14 L280.75,122.04 L289.04,140.14 L286.71,140.14 L284.71,135.79 L276.77,135.79 Z M280.77,126.79 L277.68,133.79 L283.85,133.79 L280.77,126.79 Z" id="Shape" fill="#802528"></path>
                <path d="M303.16,126.09 C301.095521,124.284201 298.157514,123.872638 295.676313,125.041665 C293.195112,126.210692 291.641911,128.738306 291.72,131.48 C291.634122,134.225539 293.201378,136.755371 295.69792,137.901074 C298.194463,139.046778 301.134439,138.585388 303.16,136.73 L303.16,139.29 C301.768681,140.078319 300.199087,140.498255 298.6,140.51 C293.629437,140.51 289.6,136.480563 289.6,131.51 C289.59718,129.069414 290.571625,126.729296 292.305815,125.012016 C294.040005,123.294736 296.389559,122.343267 298.83,122.37 C300.366382,122.352002 301.87814,122.756751 303.2,123.54 L303.16,126.09 Z" id="Shape" fill="#802528"></path>
                <polygon id="Shape" fill="#802528" points="314.5 124.76 314.5 129.64 320.5 129.64 320.5 131.64 314.5 131.64 314.5 140.16 312.34 140.16 312.34 122.78 320.74 122.78 320.74 124.78"></polygon>
                <path d="M340.24,131.46 C340.077311,136.365683 336.05338,140.258379 331.145,140.258379 C326.23662,140.258379 322.212689,136.365683 322.05,131.46 C322.212689,126.554317 326.23662,122.661621 331.145,122.661621 C336.05338,122.661621 340.077311,126.554317 340.24,131.46 Z M338.07,131.46 C338.07,127.632667 334.967333,124.53 331.14,124.53 C327.312667,124.53 324.21,127.632667 324.21,131.46 C324.21,135.287333 327.312667,138.39 331.14,138.39 C334.967333,138.39 338.07,135.287333 338.07,131.46 Z" id="Shape" fill="#802528"></path>
                <path d="M344.16,122.78 L344.16,133.03 C344.16,135.86 345.01,138.49 348.35,138.49 C351.69,138.49 352.54,135.87 352.54,133.03 L352.54,122.78 L354.7,122.78 L354.7,133.78 C354.7,137.6 352.33,140.53 348.35,140.53 C344.37,140.53 341.99,137.61 341.99,133.78 L341.99,122.78 L344.16,122.78 Z" id="Shape" fill="#802528"></path>
                <polygon id="Shape" fill="#802528" points="357.52 121.97 370.52 135.62 370.52 122.78 372.68 122.78 372.68 140.86 359.68 127.21 359.68 140.15 357.51 140.15"></polygon>
                <path d="M375.61,122.78 L379.16,122.78 C384.48,122.78 388.9,125.59 388.9,131.37 C388.9,137.15 384.57,140.14 379.09,140.14 L375.57,140.14 L375.61,122.78 Z M377.77,138.16 L378.53,138.16 C382.95,138.16 386.77,136.5 386.77,131.46 C386.77,126.42 382.95,124.76 378.53,124.76 L377.77,124.76 L377.77,138.16 Z" id="Shape" fill="#802528"></path>
                <path d="M393.56,135.79 L391.56,140.14 L389.26,140.14 L397.55,122.04 L405.84,140.14 L403.51,140.14 L401.51,135.79 L393.56,135.79 Z M397.56,126.79 L394.48,133.79 L400.65,133.79 L397.56,126.79 Z" id="Shape" fill="#802528"></path>
                <polygon id="Shape" fill="#802528" points="410.16 140.14 408 140.14 408 124.76 403.88 124.76 403.88 122.76 414.29 122.76 414.29 124.76 410.16 124.76"></polygon>
                <polygon id="Shape" fill="#802528" points="418.03 140.14 415.87 140.14 415.87 122.78 418.03 122.78"></polygon>
                <path d="M438.25,131.46 C438.087311,136.365683 434.06338,140.258379 429.155,140.258379 C424.24662,140.258379 420.222689,136.365683 420.06,131.46 C420.222689,126.554317 424.24662,122.661621 429.155,122.661621 C434.06338,122.661621 438.087311,126.554317 438.25,131.46 L438.25,131.46 Z M436.08,131.46 C436.08,127.632667 432.977333,124.53 429.15,124.53 C425.322667,124.53 422.22,127.632667 422.22,131.46 C422.22,135.287333 425.322667,138.39 429.15,138.39 C432.977333,138.39 436.08,135.287333 436.08,131.46 Z" id="Shape" fill="#802528"></path>
                <polygon id="Shape" fill="#802528" points="440.16 121.97 453.16 135.62 453.16 122.78 455.32 122.78 455.32 140.86 442.32 127.21 442.32 140.15 440.16 140.15"></polygon>
                <path d="M16.3,105.56 L15.06,105.56 C12.6040995,105.715569 10.4082014,104.039864 9.91,101.63 C9.03967609,103.045758 7.4459382,103.850363 5.79,103.71 C3.04,103.71 0.99,100.88 0.99,97.3 C0.99,93.47 2.99,90.78 6.11,90.78 L11.82,90.78 L11.82,99.43 C11.82,102.12 13.09,103.71 15.27,103.71 L16.27,103.71 L16.3,105.56 Z M9.89,96.97 L9.89,92.17 L6.47,92.17 C4.34,92.17 2.89,94.35 2.89,97.17 C2.89,99.99 4.32,102.17 6.42,102.17 C8.68,102.22 9.84,100.47 9.89,96.97 Z M7.06,88.83 L5.16,88.83 L5.16,86.54 L7.07,86.54 L7.06,88.83 Z M10.59,88.83 L8.68,88.83 L8.68,86.54 L10.59,86.54 L10.59,88.83 Z" id="Shape" fill="#802528"></path>
                <path d="M22.28,93.33 L22.28,100.82 C22.28,103.97 20.96,105.56 18.28,105.56 L15.91,105.56 L15.91,103.7 L17.66,103.7 C18.5815303,103.820603 19.4850823,103.374745 19.95,102.57 C20.2788454,101.748397 20.4156589,100.86253 20.35,99.98 L20.35,93.32 L22.28,93.33 Z M18.72,109.69 L16.81,109.69 L16.81,107.4 L18.72,107.4 L18.72,109.69 Z M22.25,109.69 L20.34,109.69 L20.34,107.4 L22.25,107.4 L22.25,109.69 Z" id="Shape" fill="#802528"></path>
                <path d="M35.11,105.56 L30.48,105.56 C29.97,108.34 28.14,109.79 25.01,109.98 L25.01,108.18 C27.52,108.18 28.78,106.81 28.78,103.63 L28.78,93.33 L30.67,93.33 L30.67,103.67 L35.12,103.67 L35.11,105.56 Z" id="Shape" fill="#802528"></path>
                <path d="M43.81,105.56 L34.51,105.56 L34.51,103.7 L36.23,103.7 C37.1436766,103.818325 38.041275,103.387165 38.52,102.6 C38.8454885,101.770496 38.9821302,100.878909 38.92,99.99 L38.92,93.33 L40.81,93.33 L40.81,100.82 C40.8515424,101.799181 40.6774379,102.775532 40.3,103.68 L43.8,103.68 L43.81,105.56 Z M37.32,109.68 L35.41,109.68 L35.41,107.39 L37.32,107.39 L37.32,109.68 Z M40.85,109.68 L38.94,109.68 L38.94,107.39 L40.85,107.39 L40.85,109.68 Z" id="Shape" fill="#802528"></path>
                <path d="M64.8,105.56 L43.16,105.56 L43.16,103.67 L59.54,103.67 C59.54,103.32 59.59,103 59.59,102.67 C59.59,98.12 57.19,95.5 52.96,95.5 C50.903737,95.3721519 48.9479284,96.402134 47.89,98.17 C47.62,97.87 47.08,97.33 46.25,96.5 C47.8902837,94.5320711 50.373841,93.4687517 52.93,93.64 C58.29,93.64 61.82,97.2 61.82,102.8 L61.82,103.63 L64.82,103.63 L64.8,105.56 Z M53.8,91.39 L51.89,91.39 L51.89,89.1 L53.8,89.1 L53.8,91.39 Z" id="Shape" fill="#802528"></path>
                <path d="M70.51,88.13 L70.51,100.82 C70.51,103.97 69.19,105.56 66.51,105.56 L64.16,105.56 L64.16,103.7 L65.88,103.7 C66.8015303,103.820603 67.7050823,103.374745 68.17,102.57 C68.4988454,101.748397 68.6356589,100.86253 68.57,99.98 L68.57,88.13 L70.51,88.13 Z" id="Shape" fill="#802528"></path>
                <polygon id="Shape" fill="#802528" points="76 105.56 74.16 105.56 74.16 88.13 76.05 88.13"></polygon>
                <path d="M103.08,88.13 L103.08,100.82 C103.08,103.97 101.76,105.56 99.15,105.56 L90.88,105.56 C85.7066667,105.56 83.12,102.946667 83.12,97.72 L83.12,93.3 L85.01,93.3 L85.01,97.72 C85.01,101.72 86.92,103.72 90.72,103.72 L98.54,103.72 C100.45,103.72 101.21,102.99 101.21,100.03 L101.21,88.13 L103.08,88.13 Z M96.34,93.13 L94.99,93.24 C94.977068,92.9251289 94.8387245,92.6285128 94.6057976,92.4162487 C94.3728706,92.2039846 94.0647152,92.0937107 93.75,92.11 C92.86,92.11 92.4,92.7 92.4,93.89 C92.3787618,94.3104598 92.4907456,94.7268995 92.72,95.08 L96.28,95.08 L96.28,96.4 L89.92,96.4 L89.92,95.08 L91.24,95.08 C91.1005188,94.709189 91.02937,94.316176 91.03,93.92 C90.9383624,93.1625574 91.1840435,92.403092 91.7019477,91.8428314 C92.2198518,91.2825707 92.9577028,90.9780665 93.72,91.01 C95.0299178,90.887031 96.1980954,91.8331216 96.35,93.14 L96.34,93.13 Z" id="Shape" fill="#802528"></path>
                <path d="M112.62,105.56 L110.49,105.56 C109.570485,105.578197 108.684157,105.21643 108.04,104.56 C107.21388,103.68372 106.793092,102.501161 106.88,101.3 L106.88,88.13 L108.82,88.13 L108.82,100.13 C108.752545,101.052629 108.939314,101.976096 109.36,102.8 C109.722512,103.295495 110.287141,103.603475 110.9,103.64 L112.62,103.64 L112.62,105.56 Z" id="Shape" fill="#802528"></path>
                <path d="M127.38,101.79 C127.43965,103.357287 126.919895,104.891631 125.92,106.1 C124.90055,107.308111 123.379367,107.976398 121.8,107.91 C119.939562,108.021478 118.161739,107.128751 117.14,105.57 L111.94,105.57 L111.94,103.67 L116.36,103.67 C116.193582,103.06424 116.112798,102.438163 116.12,101.81 C116.061496,100.204844 116.611547,98.6368389 117.66,97.42 C118.72592,96.2502952 120.259534,95.6192386 121.84,95.7 C123.416776,95.6258517 124.942421,96.2691956 125.99,97.45 C126.965162,98.6797795 127.459263,100.222513 127.38,101.79 L127.38,101.79 Z M125.2,101.6 C125.244968,100.583473 125.002349,99.5748701 124.5,98.69 C123.935447,97.8178219 122.947454,97.3142891 121.91,97.37 C120.793228,97.3103095 119.73088,97.8567691 119.13,98.8 C118.568079,99.7440192 118.296782,100.832687 118.35,101.93 C118.298971,102.986042 118.571063,104.032549 119.13,104.93 C119.723309,105.811934 120.739001,106.314075 121.8,106.25 C124.04,106.223333 125.16,104.673333 125.16,101.6 L125.2,101.6 Z" id="Shape" fill="#802528"></path>
                <polygon id="Shape" fill="#802528" points="132.88 105.56 130.99 105.56 130.99 88.13 132.88 88.13"></polygon>
                <path d="M147.7,105.56 L135.7,105.56 L135.7,103.67 L145.7,103.67 C145.799147,101.655482 145.342505,99.6524831 144.38,97.88 C143.311707,96.1427038 141.41947,95.083051 139.38,95.08 L138.65,95.08 L138.65,93.3 C142.45,93.3 145.06,94.81 146.44,97.83 C147.394552,100.290581 147.823746,102.923655 147.7,105.56 Z" id="Shape" fill="#802528"></path>
                <polygon id="Shape" fill="#802528" points="161.86 97.32 161.86 99.05 156.86 99.05 156.86 97.32"></polygon>
                <path d="M193.38,105.56 L192.98,105.56 C190.641549,105.664247 188.552188,104.109763 187.98,101.84 C187.98,106.34 183.98,109.92 179.41,109.92 C174.41,109.92 170.68,105.72 170.68,100.33 L170.68,97.63 L172.59,97.63 L172.59,99.97 C172.59,104.82 175.2,108.03 179.49,108.03 C183.1,108.03 186.25,105.03 186.25,101.78 C186.25,99.35 184.96,98.11 182.75,98.11 L182.75,96.41 L182.75,96.41 C183.230998,96.3516945 183.716128,96.3349659 184.2,96.36 C185.84,96.36 188.11,98.06 188.94,100.21 C189.94,102.8 190.83,103.66 192.85,103.66 L193.42,103.66 L193.38,105.56 Z M178.8,114.26 L176.89,114.26 L176.89,111.97 L178.8,111.97 L178.8,114.26 Z M182.33,114.26 L180.42,114.26 L180.42,111.97 L182.33,111.97 L182.33,114.26 Z" id="Shape" fill="#802528"></path>
                <path d="M199.16,93.33 L199.16,100.82 C199.16,103.97 197.84,105.56 195.16,105.56 L192.86,105.56 L192.86,103.7 L194.58,103.7 C195.50153,103.820603 196.405082,103.374745 196.87,102.57 C197.198845,101.748397 197.335659,100.86253 197.27,99.98 L197.27,93.32 L199.16,93.33 Z M199.16,91.39 L197.26,91.39 L197.26,89.1 L199.16,89.1 L199.16,91.39 Z" id="Shape" fill="#802528"></path>
                <polygon id="Shape" fill="#802528" points="204.66 105.56 202.77 105.56 202.77 88.13 204.66 88.13"></polygon>
                <path d="M221.56,105.56 L217.84,105.56 C217.3,108.34 215.47,109.79 212.37,109.98 L212.37,108.18 L212.61,108.18 C214.211236,108.274552 215.627813,107.150763 215.9,105.57 L212.96,105.57 C211.519629,105.608128 210.143941,104.972057 209.24,103.85 C208.241774,102.617332 207.723196,101.065149 207.78,99.48 C207.731272,97.8763411 208.280117,96.3117772 209.32,95.09 C210.282332,93.9466383 211.705647,93.2936743 213.2,93.31 C216.2,93.31 218.05,95.14 218.05,98.7 L218.05,103.7 L221.55,103.7 L221.56,105.56 Z M216.16,103.67 L216.16,97.97 C216.186346,97.1719092 215.876665,96.399372 215.306348,95.8404611 C214.736031,95.2815502 213.957396,94.9875376 213.16,95.03 C212.130693,95.0344163 211.178653,95.5768139 210.65,96.46 C210.085133,97.2840973 209.785113,98.2609066 209.79,99.26 C209.766378,100.271175 210.026172,101.268786 210.54,102.14 C211.020924,103.084103 211.990464,103.67896 213.05,103.68 L216.16,103.67 Z" id="Shape" fill="#802528"></path>
                <path d="M242.47,105.56 L220.83,105.56 L220.83,103.67 L237.21,103.67 C237.21,103.32 237.26,103 237.26,102.67 C237.26,98.12 234.86,95.5 230.63,95.5 C228.576734,95.3736762 226.624614,96.4037472 225.57,98.17 C225.3,97.87 224.76,97.33 223.93,96.5 C225.570284,94.5320711 228.053841,93.4687517 230.61,93.64 C235.97,93.64 239.5,97.2 239.5,102.8 L239.5,103.63 L242.5,103.63 L242.47,105.56 Z M232.1,109.66 L230.16,109.66 L230.16,107.37 L232.07,107.37 L232.1,109.66 Z" id="Shape" fill="#802528"></path>
                <path d="M263.54,93.33 L263.54,100.82 C263.54,103.97 262.22,105.56 259.54,105.56 L241.71,105.56 L241.71,103.67 L244.22,103.67 C245.94,103.67 246.89,102.51 247.08,100.22 L247.08,93.32 L248.96,93.32 L248.96,100.81 C248.984525,101.74769 248.828352,102.681337 248.5,103.56 L248.5,103.67 L252.03,103.67 C253.75,103.67 254.32,102.84 254.32,99.98 L254.32,93.32 L256.16,93.32 L256.16,100.81 C256.201216,101.789159 256.027124,102.76544 255.65,103.67 L258.88,103.67 C260.88,103.67 261.58,102.84 261.58,99.98 L261.58,93.32 L263.54,93.33 Z" id="Shape" fill="#802528"></path>
                <path d="M289.88,105.56 L284.57,105.56 C283.445321,108.222251 280.859515,109.973547 277.97,110.03 C273.55,110.03 270.35,106.1 270.35,100.76 L270.35,93.32 L272.24,93.32 L272.24,100.38 C272.24,105.01 274.42,108.19 277.98,108.19 C281.54,108.19 283.69,105.19 283.69,100.38 L283.69,93.32 L285.58,93.32 L285.58,100.76 C285.589594,101.74105 285.471947,102.719204 285.23,103.67 L289.89,103.67 L289.88,105.56 Z M278.88,91.39 L276.97,91.39 L276.97,89.1 L278.88,89.1 L278.88,91.39 Z" id="Shape" fill="#802528"></path>
                <polygon id="Shape" fill="#802528" points="294.81 105.56 289.16 105.56 289.16 103.67 294.85 103.67"></polygon>
                <path d="M303.68,105.56 L294.38,105.56 L294.38,103.7 L296.1,103.7 C297.013677,103.818325 297.911275,103.387165 298.39,102.6 C298.715488,101.770496 298.85213,100.878909 298.79,99.99 L298.79,93.33 L300.67,93.33 L300.67,100.82 C300.712199,101.799225 300.538069,102.775717 300.16,103.68 L303.66,103.68 L303.68,105.56 Z M297.16,109.68 L295.25,109.68 L295.25,107.39 L297.16,107.39 L297.16,109.68 Z M300.69,109.68 L298.78,109.68 L298.78,107.39 L300.69,107.39 L300.69,109.68 Z" id="Shape" fill="#802528"></path>
                <path d="M328.66,105.56 L303.06,105.56 L303.06,103.67 L305.57,103.67 C307.29,103.67 308.4,102.51 308.4,100.22 L308.4,93.32 L310.31,93.32 L310.31,100.81 C310.334775,101.747707 310.178594,102.681402 309.85,103.56 L309.85,103.67 L313.38,103.67 C315.1,103.67 315.67,102.84 315.67,99.98 L315.67,93.32 L317.55,93.32 L317.55,100.81 C317.592199,101.789225 317.418069,102.765717 317.04,103.67 L320.27,103.67 C322.27,103.67 322.96,102.84 322.96,99.98 L322.96,93.32 L324.85,93.32 L324.85,100.81 C324.883725,101.791537 324.699295,102.768334 324.31,103.67 L328.65,103.67 L328.66,105.56 Z" id="Shape" fill="#802528"></path>
                <path d="M346.62,102.84 L346.62,105.56 L327.95,105.56 L327.95,103.67 L344.33,103.67 C344.33,103.32 344.38,103 344.38,102.67 C344.38,98.12 341.98,95.5 337.75,95.5 C335.693737,95.3721519 333.737928,96.402134 332.68,98.17 C332.41,97.87 331.87,97.33 331.04,96.5 C332.680284,94.5320711 335.163841,93.4687517 337.72,93.64 C343.1,93.68 346.62,97.23 346.62,102.84 Z" id="Shape" fill="#802528"></path>
                <path d="M368.74,105.56 L367.5,105.56 C365.044099,105.715569 362.848201,104.039864 362.35,101.63 C361.479676,103.045758 359.885938,103.850363 358.23,103.71 C355.48,103.71 353.43,100.88 353.43,97.3 C353.43,93.47 355.43,90.78 358.55,90.78 L364.26,90.78 L364.26,99.43 C364.26,102.12 365.53,103.71 367.71,103.71 L368.71,103.71 L368.74,105.56 Z M362.33,96.97 L362.33,92.17 L358.91,92.17 C356.78,92.17 355.33,94.35 355.33,97.17 C355.33,99.99 356.76,102.17 358.86,102.17 C361.16,102.22 362.28,100.47 362.33,96.97 Z M359.5,88.83 L357.59,88.83 L357.59,86.54 L359.5,86.54 L359.5,88.83 Z M363.03,88.83 L361.16,88.83 L361.16,86.54 L363.07,86.54 L363.03,88.83 Z" id="Shape" fill="#802528"></path>
                <polygon id="Shape" fill="#802528" points="374.02 105.56 368.33 105.56 368.33 103.67 374.02 103.67"></polygon>
                <path d="M399.03,105.56 L373.43,105.56 L373.43,103.67 L375.94,103.67 C377.66,103.67 378.77,102.51 378.77,100.22 L378.77,93.32 L380.68,93.32 L380.68,100.81 C380.704525,101.74769 380.548352,102.681337 380.22,103.56 L380.22,103.67 L383.75,103.67 C385.47,103.67 386.04,102.84 386.04,99.98 L386.04,93.32 L387.93,93.32 L387.93,100.81 C387.971216,101.789159 387.797124,102.76544 387.42,103.67 L390.65,103.67 C392.65,103.67 393.35,102.84 393.35,99.98 L393.35,93.32 L395.24,93.32 L395.24,100.81 C395.27273,101.791461 395.08834,102.768042 394.7,103.67 L399.04,103.67 L399.03,105.56 Z" id="Shape" fill="#802528"></path>
                <path d="M420.16,93.33 L420.16,100.82 C420.16,103.97 418.84,105.56 416.16,105.56 L398.35,105.56 L398.35,103.67 L400.86,103.67 C402.58,103.67 403.53,102.51 403.72,100.22 L403.72,93.32 L405.61,93.32 L405.61,100.81 C405.634525,101.74769 405.478352,102.681337 405.15,103.56 L405.15,103.67 L408.68,103.67 C410.4,103.67 410.97,102.84 410.97,99.98 L410.97,93.32 L412.85,93.32 L412.85,100.81 C412.892199,101.789225 412.718069,102.765717 412.34,103.67 L415.57,103.67 C417.57,103.67 418.26,102.84 418.26,99.98 L418.26,93.32 L420.16,93.33 Z" id="Shape" fill="#802528"></path>
                <path d="M436.77,105.56 L433.05,105.56 C432.51,108.34 430.68,109.79 427.58,109.98 L427.58,108.18 C429.26203,108.381531 430.809688,107.237229 431.11,105.57 L428.16,105.57 C425.16,105.57 422.99,102.93 422.99,99.48 C422.99,96.03 425.36,93.31 428.41,93.31 C431.46,93.31 433.26,95.14 433.26,98.7 L433.26,103.7 L436.76,103.7 L436.77,105.56 Z M431.33,103.67 L431.33,97.97 C431.359453,97.1710159 431.050757,96.3966271 430.479725,95.8370155 C429.908693,95.2774039 429.128226,94.9844136 428.33,95.03 C426.42,95.03 424.96,97.03 424.96,99.26 C424.96,101.68 426.33,103.68 428.22,103.68 L431.33,103.67 Z M431.41,88.47 L430.12,88.6 C430.077086,87.9268258 429.503936,87.4114343 428.83,87.44 C427.94,87.44 427.51,88.03 427.51,89.25 C427.495267,89.6697417 427.606733,90.0842584 427.83,90.44 L431.39,90.44 L431.39,91.76 L425.03,91.76 L425.03,90.44 L426.35,90.44 C426.207794,90.0595194 426.136615,89.6561731 426.14,89.25 C426.048362,88.4925574 426.294044,87.733092 426.811948,87.1728314 C427.329852,86.6125707 428.067703,86.3080665 428.83,86.34 C430.129932,86.2296128 431.278213,87.1820633 431.41,88.48 L431.41,88.47 Z" id="Shape" fill="#802528"></path>
                <polygon id="Shape" fill="#802528" points="442 105.56 436.31 105.56 436.31 103.67 442 103.67"></polygon>
                <path d="M456.79,101.79 C456.850596,103.357424 456.33073,104.892097 455.33,106.1 C454.31055,107.308111 452.789367,107.976398 451.21,107.91 C449.349995,108.019376 447.573166,107.127149 446.55,105.57 L441.35,105.57 L441.35,103.67 L445.77,103.67 C445.603582,103.06424 445.522798,102.438163 445.53,101.81 C445.471496,100.204844 446.021547,98.6368389 447.07,97.42 C448.136749,96.2514792 449.669779,95.6206632 451.25,95.7 C452.826776,95.6258517 454.352421,96.2691956 455.4,97.45 C456.375162,98.6797795 456.869263,100.222513 456.79,101.79 L456.79,101.79 Z M454.61,101.6 C454.654968,100.583473 454.412349,99.5748701 453.91,98.69 C453.344015,97.8194112 452.35701,97.3163816 451.32,97.37 C450.203228,97.3103095 449.14088,97.8567691 448.54,98.8 C447.978079,99.7440192 447.706782,100.832687 447.76,101.93 C447.708971,102.986042 447.981063,104.032549 448.54,104.93 C449.133309,105.811934 450.149001,106.314075 451.21,106.25 C453.476667,106.223333 454.61,104.673333 454.61,101.6 Z" id="Shape" fill="#802528"></path>
            </g>
        </g>
    </g>
</svg>